u2194_ 10 - 30.ufo
<glyph name="exclam" format="1">
  <advance width="160"/>
  <unicode hex="0021"/>
  <outline>
    <contour>
      <point x="80" y="171" type="curve" smooth="yes"/>
      <point x="96" y="171"/>
      <point x="110" y="185"/>
      <point x="110" y="201" type="curve" smooth="yes"/>
      <point x="110" y="801" type="line" smooth="yes"/>
      <point x="110" y="817"/>
      <point x="96" y="831"/>
      <point x="80" y="831" type="curve" smooth="yes"/>
      <point x="64" y="831"/>
      <point x="50" y="817"/>
      <point x="50" y="801" type="curve" smooth="yes"/>
      <point x="50" y="201" type="line" smooth="yes"/>
      <point x="50" y="185"/>
      <point x="64" y="171"/>
    </contour>
    <contour>
      <point x="80" y="-29" type="curve" smooth="yes"/>
      <point x="96" y="-29"/>
      <point x="110" y="-15"/>
      <point x="110" y="1" type="curve" smooth="yes"/>
      <point x="110" y="18" type="line" smooth="yes"/>
      <point x="110" y="34"/>
      <point x="96" y="48"/>
      <point x="80" y="48" type="curve" smooth="yes"/>
      <point x="64" y="48"/>
      <point x="50" y="34"/>
      <point x="50" y="18" type="curve" smooth="yes"/>
      <point x="50" y="1" type="line" smooth="yes"/>
      <point x="50" y="-15"/>
      <point x="64" y="-29"/>
    </contour>
  </outline>
</glyph>
<glyph name="numbersign" format="1">
  <advance width="760"/>
  <unicode hex="0023"/>
  <outline>
    <contour>
      <point x="492" y="569" type="line"/>
      <point x="407" y="229" type="line"/>
      <point x="268" y="229" type="line"/>
      <point x="353" y="569" type="line"/>
    </contour>
    <contour>
      <point x="409" y="-8" type="curve" smooth="yes"/>
      <point x="453" y="169" type="line"/>
      <point x="580" y="169" type="line" smooth="yes"/>
      <point x="596" y="169"/>
      <point x="610" y="183"/>
      <point x="610" y="199" type="curve" smooth="yes"/>
      <point x="610" y="215"/>
      <point x="596" y="229"/>
      <point x="580" y="229" type="curve" smooth="yes"/>
      <point x="468" y="229" type="line"/>
      <point x="553" y="569" type="line"/>
      <point x="680" y="569" type="line" smooth="yes"/>
      <point x="696" y="569"/>
      <point x="710" y="583"/>
      <point x="710" y="599" type="curve" smooth="yes"/>
      <point x="710" y="615"/>
      <point x="696" y="629"/>
      <point x="680" y="629" type="curve" smooth="yes"/>
      <point x="568" y="629" type="line"/>
      <point x="607" y="782" type="line"/>
      <point x="609" y="792" type="line" smooth="yes"/>
      <point x="613" y="807"/>
      <point x="603" y="824"/>
      <point x="587" y="828" type="curve" smooth="yes"/>
      <point x="572" y="832"/>
      <point x="555" y="822"/>
      <point x="551" y="806" type="curve" smooth="yes"/>
      <point x="507" y="629" type="line"/>
      <point x="368" y="629" type="line"/>
      <point x="407" y="782" type="line"/>
      <point x="409" y="792" type="line" smooth="yes"/>
      <point x="413" y="807"/>
      <point x="403" y="824"/>
      <point x="387" y="828" type="curve" smooth="yes"/>
      <point x="372" y="832"/>
      <point x="355" y="822"/>
      <point x="351" y="806" type="curve" smooth="yes"/>
      <point x="307" y="629" type="line"/>
      <point x="174" y="629" type="line" smooth="yes"/>
      <point x="158" y="629"/>
      <point x="144" y="615"/>
      <point x="144" y="599" type="curve" smooth="yes"/>
      <point x="144" y="583"/>
      <point x="158" y="569"/>
      <point x="174" y="569" type="curve" smooth="yes"/>
      <point x="292" y="569" type="line"/>
      <point x="207" y="229" type="line"/>
      <point x="80" y="229" type="line" smooth="yes"/>
      <point x="64" y="229"/>
      <point x="50" y="215"/>
      <point x="50" y="199" type="curve" smooth="yes"/>
      <point x="50" y="183"/>
      <point x="64" y="169"/>
      <point x="80" y="169" type="curve" smooth="yes"/>
      <point x="192" y="169" type="line"/>
      <point x="153" y="16" type="line"/>
      <point x="151" y="6" type="line" smooth="yes"/>
      <point x="147" y="-9"/>
      <point x="157" y="-26"/>
      <point x="173" y="-30" type="curve" smooth="yes"/>
      <point x="188" y="-34"/>
      <point x="205" y="-24"/>
      <point x="209" y="-8" type="curve" smooth="yes"/>
      <point x="253" y="169" type="line"/>
      <point x="392" y="169" type="line"/>
      <point x="353" y="16" type="line"/>
      <point x="351" y="6" type="line" smooth="yes"/>
      <point x="347" y="-9"/>
      <point x="357" y="-26"/>
      <point x="373" y="-30" type="curve" smooth="yes"/>
      <point x="388" y="-34"/>
      <point x="405" y="-24"/>
    </contour>
  </outline>
</glyph>
<glyph name="dollar" format="1">
  <advance width="761"/>
  <unicode hex="0024"/>
  <outline>
    <contour>
      <point x="280" y="429" type="line"/>
      <point x="273" y="429" type="line"/>
      <point x="266" y="429" type="line"/>
      <point x="260" y="429" type="line"/>
      <point x="252" y="429" type="line"/>
      <point x="245" y="429" type="line"/>
      <point x="238" y="430" type="line"/>
      <point x="231" y="430" type="line"/>
      <point x="224" y="431" type="line"/>
      <point x="217" y="432" type="line"/>
      <point x="210" y="433" type="line"/>
      <point x="203" y="435" type="line"/>
      <point x="196" y="436" type="line"/>
      <point x="189" y="438" type="line"/>
      <point x="183" y="441" type="line"/>
      <point x="177" y="443" type="line"/>
      <point x="171" y="447" type="line"/>
      <point x="165" y="450" type="line"/>
      <point x="159" y="454" type="line"/>
      <point x="154" y="458" type="line"/>
      <point x="149" y="463" type="line"/>
      <point x="145" y="467" type="line"/>
      <point x="139" y="474" type="line"/>
      <point x="135" y="481" type="line"/>
      <point x="131" y="488" type="line"/>
      <point x="127" y="496" type="line"/>
      <point x="123" y="505" type="line"/>
      <point x="120" y="515" type="line"/>
      <point x="117" y="526" type="line"/>
      <point x="115" y="538" type="line"/>
      <point x="113" y="551" type="line"/>
      <point x="111" y="566" type="line"/>
      <point x="110" y="581" type="line"/>
      <point x="110" y="598" type="line"/>
      <point x="110" y="606" type="line"/>
      <point x="110" y="612" type="line"/>
      <point x="110" y="619" type="line"/>
      <point x="110" y="626" type="line"/>
      <point x="110" y="633" type="line"/>
      <point x="111" y="640" type="line"/>
      <point x="111" y="648" type="line"/>
      <point x="112" y="655" type="line"/>
      <point x="113" y="662" type="line"/>
      <point x="114" y="669" type="line"/>
      <point x="116" y="676" type="line"/>
      <point x="117" y="683" type="line"/>
      <point x="119" y="689" type="line"/>
      <point x="122" y="696" type="line"/>
      <point x="124" y="702" type="line"/>
      <point x="128" y="708" type="line"/>
      <point x="131" y="714" type="line"/>
      <point x="135" y="719" type="line"/>
      <point x="139" y="725" type="line"/>
      <point x="144" y="730" type="line"/>
      <point x="148" y="734" type="line"/>
      <point x="155" y="739" type="line"/>
      <point x="162" y="744" type="line"/>
      <point x="169" y="748" type="line"/>
      <point x="177" y="752" type="line"/>
      <point x="186" y="756" type="line"/>
      <point x="196" y="759" type="line"/>
      <point x="207" y="762" type="line"/>
      <point x="219" y="764" type="line"/>
      <point x="232" y="766" type="line"/>
      <point x="247" y="768" type="line"/>
      <point x="262" y="769" type="line"/>
      <point x="279" y="769" type="line"/>
      <point x="351" y="769" type="line"/>
      <point x="351" y="429" type="line"/>
    </contour>
    <contour>
      <point x="481" y="29" type="line"/>
      <point x="411" y="29" type="line"/>
      <point x="411" y="369" type="line"/>
      <point x="481" y="369" type="line"/>
      <point x="488" y="369" type="line"/>
      <point x="494" y="369" type="line"/>
      <point x="501" y="369" type="line"/>
      <point x="508" y="369" type="line"/>
      <point x="515" y="369" type="line"/>
      <point x="522" y="368" type="line"/>
      <point x="529" y="368" type="line"/>
      <point x="536" y="367" type="line"/>
      <point x="543" y="366" type="line"/>
      <point x="550" y="365" type="line"/>
      <point x="557" y="364" type="line"/>
      <point x="564" y="362" type="line"/>
      <point x="570" y="360" type="line"/>
      <point x="577" y="358" type="line"/>
      <point x="583" y="355" type="line"/>
      <point x="589" y="352" type="line"/>
      <point x="594" y="349" type="line"/>
      <point x="600" y="345" type="line"/>
      <point x="605" y="341" type="line"/>
      <point x="610" y="337" type="line"/>
      <point x="616" y="330" type="line"/>
      <point x="620" y="326" type="line"/>
      <point x="625" y="319" type="line"/>
      <point x="629" y="312" type="line"/>
      <point x="633" y="304" type="line"/>
      <point x="637" y="295" type="line"/>
      <point x="640" y="285" type="line"/>
      <point x="643" y="273" type="line"/>
      <point x="646" y="261" type="line"/>
      <point x="648" y="248" type="line"/>
      <point x="650" y="234" type="line"/>
      <point x="651" y="218" type="line"/>
      <point x="651" y="201" type="line"/>
      <point x="651" y="195" type="line"/>
      <point x="651" y="188" type="line"/>
      <point x="651" y="181" type="line"/>
      <point x="651" y="174" type="line"/>
      <point x="651" y="167" type="line"/>
      <point x="650" y="160" type="line"/>
      <point x="650" y="153" type="line"/>
      <point x="649" y="146" type="line"/>
      <point x="648" y="139" type="line"/>
      <point x="647" y="132" type="line"/>
      <point x="645" y="125" type="line"/>
      <point x="643" y="118" type="line"/>
      <point x="641" y="112" type="line"/>
      <point x="639" y="105" type="line"/>
      <point x="636" y="99" type="line"/>
      <point x="633" y="93" type="line"/>
      <point x="630" y="87" type="line"/>
      <point x="626" y="81" type="line"/>
      <point x="622" y="76" type="line"/>
      <point x="617" y="70" type="line"/>
      <point x="611" y="65" type="line"/>
      <point x="606" y="60" type="line"/>
      <point x="599" y="56" type="line"/>
      <point x="592" y="51" type="line"/>
      <point x="584" y="47" type="line"/>
      <point x="575" y="43" type="line"/>
      <point x="565" y="40" type="line"/>
      <point x="554" y="37" type="line"/>
      <point x="541" y="34" type="line"/>
      <point x="528" y="32" type="line"/>
      <point x="514" y="30" type="line"/>
      <point x="498" y="29" type="line"/>
    </contour>
    <contour>
      <point x="280" y="-31" type="line" smooth="yes"/>
      <point x="481" y="-31" type="line"/>
      <point x="499" y="-31" type="line"/>
      <point x="518" y="-30" type="line"/>
      <point x="535" y="-28" type="line"/>
      <point x="551" y="-25" type="line"/>
      <point x="566" y="-22" type="line"/>
      <point x="581" y="-18" type="line"/>
      <point x="594" y="-13" type="line"/>
      <point x="607" y="-8" type="line"/>
      <point x="619" y="-2" type="line"/>
      <point x="630" y="4" type="line"/>
      <point x="640" y="11" type="line"/>
      <point x="650" y="19" type="line" smooth="yes"/>
      <point x="650" y="19"/>
      <point x="651" y="20"/>
      <point x="651" y="20" type="curve" smooth="yes"/>
      <point x="658" y="27" type="line"/>
      <point x="666" y="35" type="line"/>
      <point x="673" y="44" type="line"/>
      <point x="680" y="53" type="line"/>
      <point x="685" y="62" type="line"/>
      <point x="690" y="72" type="line"/>
      <point x="694" y="81" type="line"/>
      <point x="698" y="91" type="line"/>
      <point x="701" y="100" type="line"/>
      <point x="703" y="110" type="line"/>
      <point x="705" y="119" type="line"/>
      <point x="707" y="129" type="line"/>
      <point x="708" y="138" type="line"/>
      <point x="709" y="147" type="line"/>
      <point x="710" y="155" type="line"/>
      <point x="710" y="164" type="line"/>
      <point x="711" y="172" type="line"/>
      <point x="711" y="180" type="line"/>
      <point x="711" y="187" type="line"/>
      <point x="711" y="194" type="line"/>
      <point x="711" y="201" type="line"/>
      <point x="711" y="219" type="line"/>
      <point x="710" y="238" type="line"/>
      <point x="708" y="255" type="line"/>
      <point x="705" y="271" type="line"/>
      <point x="702" y="286" type="line"/>
      <point x="698" y="300" type="line"/>
      <point x="694" y="314" type="line"/>
      <point x="689" y="326" type="line"/>
      <point x="683" y="338" type="line"/>
      <point x="677" y="349" type="line"/>
      <point x="670" y="360" type="line"/>
      <point x="662" y="369" type="line" smooth="yes"/>
      <point x="662" y="369"/>
      <point x="661" y="370"/>
      <point x="661" y="371" type="curve" smooth="yes"/>
      <point x="654" y="378" type="line"/>
      <point x="646" y="385" type="line"/>
      <point x="637" y="392" type="line"/>
      <point x="628" y="399" type="line"/>
      <point x="619" y="404" type="line"/>
      <point x="610" y="409" type="line"/>
      <point x="600" y="413" type="line"/>
      <point x="591" y="417" type="line"/>
      <point x="581" y="419" type="line"/>
      <point x="572" y="422" type="line"/>
      <point x="562" y="424" type="line"/>
      <point x="553" y="425" type="line"/>
      <point x="544" y="427" type="line"/>
      <point x="535" y="427" type="line"/>
      <point x="527" y="428" type="line"/>
      <point x="518" y="429" type="line"/>
      <point x="510" y="429" type="line"/>
      <point x="502" y="429" type="line"/>
      <point x="495" y="429" type="line"/>
      <point x="488" y="429" type="line"/>
      <point x="481" y="429" type="line"/>
      <point x="411" y="429" type="line"/>
      <point x="411" y="769" type="line"/>
      <point x="479" y="769" type="line"/>
      <point x="496" y="769" type="line"/>
      <point x="512" y="768" type="line"/>
      <point x="526" y="766" type="line"/>
      <point x="539" y="764" type="line"/>
      <point x="551" y="761" type="line"/>
      <point x="563" y="758" type="line"/>
      <point x="573" y="755" type="line"/>
      <point x="582" y="751" type="line"/>
      <point x="590" y="747" type="line"/>
      <point x="598" y="743" type="line"/>
      <point x="603" y="739" type="line"/>
      <point x="610" y="733" type="line"/>
      <point x="616" y="728" type="line"/>
      <point x="621" y="723" type="line"/>
      <point x="625" y="718" type="line"/>
      <point x="629" y="712" type="line"/>
      <point x="632" y="706" type="line"/>
      <point x="636" y="700" type="line"/>
      <point x="638" y="694" type="line"/>
      <point x="641" y="688" type="line"/>
      <point x="643" y="681" type="line"/>
      <point x="645" y="674" type="line"/>
      <point x="646" y="668" type="line"/>
      <point x="647" y="661" type="line"/>
      <point x="648" y="654" type="line"/>
      <point x="649" y="647" type="line"/>
      <point x="650" y="640" type="line"/>
      <point x="650" y="633" type="line"/>
      <point x="651" y="626" type="line"/>
      <point x="651" y="619" type="line"/>
      <point x="651" y="612" type="line"/>
      <point x="651" y="605" type="line"/>
      <point x="651" y="599" type="line" smooth="yes"/>
      <point x="651" y="583"/>
      <point x="665" y="569"/>
      <point x="681" y="569" type="curve" smooth="yes"/>
      <point x="697" y="569"/>
      <point x="711" y="583"/>
      <point x="711" y="599" type="curve" smooth="yes"/>
      <point x="711" y="606" type="line"/>
      <point x="711" y="613" type="line"/>
      <point x="711" y="621" type="line"/>
      <point x="711" y="628" type="line"/>
      <point x="710" y="637" type="line"/>
      <point x="710" y="645" type="line"/>
      <point x="709" y="654" type="line"/>
      <point x="708" y="663" type="line"/>
      <point x="706" y="672" type="line"/>
      <point x="705" y="681" type="line"/>
      <point x="702" y="690" type="line"/>
      <point x="700" y="700" type="line"/>
      <point x="697" y="709" type="line"/>
      <point x="693" y="719" type="line"/>
      <point x="689" y="728" type="line"/>
      <point x="684" y="738" type="line"/>
      <point x="678" y="747" type="line"/>
      <point x="671" y="756" type="line"/>
      <point x="664" y="764" type="line"/>
      <point x="656" y="773" type="line"/>
      <point x="647" y="780" type="line"/>
      <point x="640" y="787" type="line" smooth="yes"/>
      <point x="639" y="787"/>
      <point x="638" y="787"/>
      <point x="638" y="788" type="curve" smooth="yes"/>
      <point x="628" y="795" type="line"/>
      <point x="616" y="801" type="line"/>
      <point x="604" y="807" type="line"/>
      <point x="592" y="812" type="line"/>
      <point x="578" y="816" type="line"/>
      <point x="564" y="820" type="line"/>
      <point x="549" y="823" type="line"/>
      <point x="532" y="826" type="line"/>
      <point x="515" y="828" type="line"/>
      <point x="497" y="829" type="line"/>
      <point x="480" y="829" type="line" smooth="yes"/>
      <point x="479" y="829"/>
      <point x="479" y="829"/>
      <point x="479" y="829" type="curve" smooth="yes"/>
      <point x="381" y="829" type="line"/>
      <point x="381" y="829" type="line" smooth="yes"/>
      <point x="381" y="829" type="line"/>
      <point x="277" y="829" type="line"/>
      <point x="258" y="829" type="line"/>
      <point x="240" y="827" type="line"/>
      <point x="223" y="826" type="line"/>
      <point x="207" y="823" type="line"/>
      <point x="191" y="820" type="line"/>
      <point x="177" y="816" type="line"/>
      <point x="163" y="811" type="line"/>
      <point x="151" y="806" type="line"/>
      <point x="139" y="800" type="line"/>
      <point x="128" y="793" type="line"/>
      <point x="118" y="786" type="line"/>
      <point x="110" y="780" type="line" smooth="yes"/>
      <point x="110" y="780"/>
      <point x="109" y="779"/>
      <point x="108" y="778" type="curve" smooth="yes"/>
      <point x="100" y="770" type="line"/>
      <point x="92" y="762" type="line"/>
      <point x="85" y="753" type="line"/>
      <point x="79" y="744" type="line"/>
      <point x="74" y="735" type="line"/>
      <point x="69" y="726" type="line"/>
      <point x="65" y="716" type="line"/>
      <point x="62" y="707" type="line"/>
      <point x="59" y="697" type="line"/>
      <point x="57" y="688" type="line"/>
      <point x="55" y="679" type="line"/>
      <point x="53" y="670" type="line"/>
      <point x="52" y="661" type="line"/>
      <point x="51" y="652" type="line"/>
      <point x="51" y="643" type="line"/>
      <point x="50" y="635" type="line"/>
      <point x="50" y="627" type="line"/>
      <point x="50" y="620" type="line"/>
      <point x="50" y="612" type="line"/>
      <point x="50" y="605" type="line"/>
      <point x="50" y="596" type="line"/>
      <point x="50" y="577" type="line"/>
      <point x="52" y="559" type="line"/>
      <point x="53" y="542" type="line"/>
      <point x="56" y="526" type="line"/>
      <point x="59" y="510" type="line"/>
      <point x="63" y="496" type="line"/>
      <point x="68" y="482" type="line"/>
      <point x="73" y="470" type="line"/>
      <point x="79" y="458" type="line"/>
      <point x="86" y="447" type="line"/>
      <point x="93" y="437" type="line"/>
      <point x="99" y="429" type="line" smooth="yes"/>
      <point x="99" y="429"/>
      <point x="100" y="428"/>
      <point x="100" y="427" type="curve" smooth="yes"/>
      <point x="108" y="419" type="line"/>
      <point x="117" y="411" type="line"/>
      <point x="125" y="404" type="line"/>
      <point x="134" y="398" type="line"/>
      <point x="144" y="393" type="line"/>
      <point x="153" y="388" type="line"/>
      <point x="162" y="384" type="line"/>
      <point x="172" y="381" type="line"/>
      <point x="181" y="378" type="line"/>
      <point x="191" y="376" type="line"/>
      <point x="200" y="374" type="line"/>
      <point x="209" y="372" type="line"/>
      <point x="218" y="371" type="line"/>
      <point x="227" y="370" type="line"/>
      <point x="235" y="370" type="line"/>
      <point x="243" y="369" type="line"/>
      <point x="251" y="369" type="line"/>
      <point x="259" y="369" type="line"/>
      <point x="266" y="369" type="line"/>
      <point x="273" y="369" type="line"/>
      <point x="280" y="369" type="line"/>
      <point x="351" y="369" type="line"/>
      <point x="351" y="29" type="line"/>
      <point x="280" y="29" type="line"/>
      <point x="273" y="29" type="line"/>
      <point x="267" y="29" type="line"/>
      <point x="260" y="29" type="line"/>
      <point x="253" y="29" type="line"/>
      <point x="246" y="30" type="line"/>
      <point x="239" y="30" type="line"/>
      <point x="232" y="31" type="line"/>
      <point x="225" y="31" type="line"/>
      <point x="218" y="32" type="line"/>
      <point x="211" y="33" type="line"/>
      <point x="204" y="35" type="line"/>
      <point x="198" y="37" type="line"/>
      <point x="191" y="39" type="line"/>
      <point x="185" y="41" type="line"/>
      <point x="179" y="44" type="line"/>
      <point x="173" y="47" type="line"/>
      <point x="167" y="50" type="line"/>
      <point x="161" y="54" type="line"/>
      <point x="155" y="59" type="line"/>
      <point x="151" y="63" type="line"/>
      <point x="146" y="68" type="line"/>
      <point x="141" y="74" type="line"/>
      <point x="136" y="81" type="line"/>
      <point x="132" y="88" type="line"/>
      <point x="128" y="96" type="line"/>
      <point x="124" y="106" type="line"/>
      <point x="121" y="116" type="line"/>
      <point x="118" y="127" type="line"/>
      <point x="115" y="139" type="line"/>
      <point x="113" y="152" type="line"/>
      <point x="111" y="166" type="line"/>
      <point x="110" y="182" type="line"/>
      <point x="110" y="200" type="line" smooth="yes"/>
      <point x="110" y="216"/>
      <point x="96" y="229"/>
      <point x="79" y="229" type="curve" smooth="yes"/>
      <point x="63" y="229"/>
      <point x="50" y="215"/>
      <point x="50" y="198" type="curve" smooth="yes"/>
      <point x="50" y="181" type="line"/>
      <point x="51" y="163" type="line"/>
      <point x="53" y="146" type="line"/>
      <point x="56" y="130" type="line"/>
      <point x="59" y="114" type="line"/>
      <point x="63" y="100" type="line"/>
      <point x="67" y="86" type="line"/>
      <point x="72" y="74" type="line"/>
      <point x="78" y="62" type="line"/>
      <point x="84" y="51" type="line"/>
      <point x="91" y="41" type="line"/>
      <point x="99" y="31" type="line"/>
      <point x="107" y="22" type="line"/>
      <point x="115" y="14" type="line" smooth="yes"/>
      <point x="115" y="14"/>
      <point x="116" y="13"/>
      <point x="117" y="13" type="curve" smooth="yes"/>
      <point x="124" y="7" type="line"/>
      <point x="132" y="1" type="line"/>
      <point x="142" y="-5" type="line"/>
      <point x="151" y="-10" type="line"/>
      <point x="160" y="-14" type="line"/>
      <point x="170" y="-17" type="line"/>
      <point x="179" y="-20" type="line"/>
      <point x="189" y="-23" type="line"/>
      <point x="198" y="-25" type="line"/>
      <point x="207" y="-27" type="line"/>
      <point x="217" y="-28" type="line"/>
      <point x="225" y="-29" type="line"/>
      <point x="234" y="-30" type="line"/>
      <point x="243" y="-30" type="line"/>
      <point x="251" y="-31" type="line"/>
      <point x="259" y="-31" type="line"/>
      <point x="266" y="-31" type="line"/>
      <point x="273" y="-31" type="line"/>
    </contour>
  </outline>
</glyph>
<glyph name="percent" format="1">
  <advance width="760"/>
  <unicode hex="0025"/>
  <outline>
    <contour>
      <point x="80" y="569" type="curve" smooth="yes"/>
      <point x="280" y="569" type="line" smooth="yes"/>
      <point x="297" y="569"/>
      <point x="310" y="582"/>
      <point x="310" y="599" type="curve" smooth="yes"/>
      <point x="310" y="789" type="line" smooth="yes"/>
      <point x="310" y="791"/>
      <point x="310" y="792"/>
      <point x="310" y="794" type="curve"/>
      <point x="310" y="796"/>
      <point x="310" y="798"/>
      <point x="310" y="800" type="curve" smooth="yes"/>
      <point x="310" y="816"/>
      <point x="296" y="829"/>
      <point x="279" y="829" type="curve" smooth="yes"/>
      <point x="262" y="829" type="line"/>
      <point x="244" y="828" type="line"/>
      <point x="227" y="826" type="line"/>
      <point x="210" y="823" type="line"/>
      <point x="195" y="820" type="line"/>
      <point x="181" y="816" type="line"/>
      <point x="167" y="812" type="line"/>
      <point x="155" y="807" type="line"/>
      <point x="143" y="801" type="line"/>
      <point x="132" y="794" type="line"/>
      <point x="121" y="788" type="line"/>
      <point x="112" y="780" type="line"/>
      <point x="103" y="772" type="line"/>
      <point x="95" y="764" type="line"/>
      <point x="88" y="755" type="line" smooth="yes"/>
      <point x="88" y="755"/>
      <point x="87" y="754"/>
      <point x="87" y="753" type="curve" smooth="yes"/>
      <point x="82" y="746" type="line"/>
      <point x="76" y="737" type="line"/>
      <point x="71" y="728" type="line"/>
      <point x="67" y="718" type="line"/>
      <point x="63" y="709" type="line"/>
      <point x="60" y="699" type="line"/>
      <point x="58" y="690" type="line"/>
      <point x="55" y="680" type="line"/>
      <point x="54" y="671" type="line"/>
      <point x="52" y="662" type="line"/>
      <point x="51" y="653" type="line"/>
      <point x="51" y="644" type="line"/>
      <point x="50" y="636" type="line"/>
      <point x="50" y="628" type="line"/>
      <point x="50" y="620" type="line"/>
      <point x="50" y="612" type="line"/>
      <point x="50" y="605" type="line"/>
      <point x="50" y="599" type="line" smooth="yes"/>
      <point x="50" y="582"/>
      <point x="64" y="569"/>
    </contour>
    <contour>
      <point x="104" y="-19" type="curve" smooth="yes"/>
      <point x="704" y="781" type="line" smooth="yes"/>
      <point x="714" y="794"/>
      <point x="711" y="813"/>
      <point x="698" y="823" type="curve" smooth="yes"/>
      <point x="685" y="833"/>
      <point x="666" y="830"/>
      <point x="656" y="817" type="curve" smooth="yes"/>
      <point x="56" y="17" type="line" smooth="yes"/>
      <point x="46" y="4"/>
      <point x="49" y="-15"/>
      <point x="62" y="-25" type="curve" smooth="yes"/>
      <point x="75" y="-35"/>
      <point x="94" y="-32"/>
    </contour>
    <contour>
      <point x="110" y="633" type="line"/>
      <point x="111" y="640" type="line"/>
      <point x="111" y="647" type="line"/>
      <point x="112" y="654" type="line"/>
      <point x="113" y="661" type="line"/>
      <point x="114" y="667" type="line"/>
      <point x="116" y="674" type="line"/>
      <point x="117" y="681" type="line"/>
      <point x="119" y="687" type="line"/>
      <point x="122" y="694" type="line"/>
      <point x="124" y="700" type="line"/>
      <point x="127" y="706" type="line"/>
      <point x="131" y="712" type="line"/>
      <point x="135" y="718" type="line"/>
      <point x="139" y="723" type="line"/>
      <point x="144" y="728" type="line"/>
      <point x="149" y="733" type="line"/>
      <point x="155" y="738" type="line"/>
      <point x="162" y="743" type="line"/>
      <point x="169" y="747" type="line"/>
      <point x="177" y="751" type="line"/>
      <point x="187" y="755" type="line"/>
      <point x="197" y="758" type="line"/>
      <point x="208" y="761" type="line"/>
      <point x="220" y="764" type="line"/>
      <point x="233" y="766" type="line"/>
      <point x="247" y="768" type="line"/>
      <point x="250" y="768" type="line"/>
      <point x="250" y="629" type="line"/>
      <point x="110" y="629" type="line"/>
    </contour>
    <contour>
      <point x="481" y="-31" type="curve" smooth="yes"/>
      <point x="498" y="-31" type="line"/>
      <point x="516" y="-30" type="line"/>
      <point x="533" y="-28" type="line"/>
      <point x="550" y="-25" type="line"/>
      <point x="565" y="-22" type="line"/>
      <point x="579" y="-18" type="line"/>
      <point x="593" y="-14" type="line"/>
      <point x="605" y="-9" type="line"/>
      <point x="617" y="-3" type="line"/>
      <point x="628" y="4" type="line"/>
      <point x="639" y="10" type="line"/>
      <point x="648" y="18" type="line"/>
      <point x="657" y="26" type="line"/>
      <point x="665" y="34" type="line"/>
      <point x="672" y="43" type="line" smooth="yes"/>
      <point x="672" y="43"/>
      <point x="673" y="44"/>
      <point x="673" y="45" type="curve" smooth="yes"/>
      <point x="678" y="52" type="line"/>
      <point x="684" y="61" type="line"/>
      <point x="689" y="70" type="line"/>
      <point x="693" y="80" type="line"/>
      <point x="697" y="89" type="line"/>
      <point x="700" y="99" type="line"/>
      <point x="702" y="108" type="line"/>
      <point x="705" y="118" type="line"/>
      <point x="706" y="127" type="line"/>
      <point x="708" y="136" type="line"/>
      <point x="709" y="145" type="line"/>
      <point x="709" y="154" type="line"/>
      <point x="710" y="162" type="line"/>
      <point x="710" y="170" type="line"/>
      <point x="710" y="178" type="line"/>
      <point x="710" y="186" type="line"/>
      <point x="710" y="193" type="line"/>
      <point x="710" y="199" type="line" smooth="yes"/>
      <point x="710" y="216"/>
      <point x="696" y="229"/>
      <point x="680" y="229" type="curve" smooth="yes"/>
      <point x="480" y="229" type="line" smooth="yes"/>
      <point x="463" y="229"/>
      <point x="450" y="216"/>
      <point x="450" y="199" type="curve" smooth="yes"/>
      <point x="450" y="9" type="line" smooth="yes"/>
      <point x="450" y="7"/>
      <point x="450" y="6"/>
      <point x="450" y="4" type="curve"/>
      <point x="450" y="2"/>
      <point x="450" y="0"/>
      <point x="450" y="-2" type="curve" smooth="yes"/>
      <point x="450" y="-18"/>
      <point x="464" y="-31"/>
    </contour>
    <contour>
      <point x="513" y="30" type="line"/>
      <point x="510" y="30" type="line"/>
      <point x="510" y="169" type="line"/>
      <point x="650" y="169" type="line"/>
      <point x="650" y="165" type="line"/>
      <point x="649" y="158" type="line"/>
      <point x="649" y="151" type="line"/>
      <point x="648" y="144" type="line"/>
      <point x="647" y="137" type="line"/>
      <point x="646" y="131" type="line"/>
      <point x="644" y="124" type="line"/>
      <point x="643" y="117" type="line"/>
      <point x="641" y="111" type="line"/>
      <point x="638" y="104" type="line"/>
      <point x="636" y="98" type="line"/>
      <point x="633" y="92" type="line"/>
      <point x="629" y="86" type="line"/>
      <point x="625" y="80" type="line"/>
      <point x="621" y="75" type="line"/>
      <point x="616" y="70" type="line"/>
      <point x="611" y="65" type="line"/>
      <point x="605" y="60" type="line"/>
      <point x="598" y="55" type="line"/>
      <point x="591" y="51" type="line"/>
      <point x="583" y="47" type="line"/>
      <point x="573" y="43" type="line"/>
      <point x="563" y="40" type="line"/>
      <point x="552" y="37" type="line"/>
      <point x="540" y="34" type="line"/>
      <point x="527" y="32" type="line"/>
    </contour>
  </outline>
</glyph>
<glyph name="ampersand" format="1">
  <advance width="760"/>
  <unicode hex="0026"/>
  <outline>
    <contour>
      <point x="309" y="599" type="line"/>
      <point x="309" y="616" type="line"/>
      <point x="310" y="632" type="line"/>
      <point x="312" y="646" type="line"/>
      <point x="314" y="659" type="line"/>
      <point x="317" y="671" type="line"/>
      <point x="320" y="683" type="line"/>
      <point x="323" y="693" type="line"/>
      <point x="327" y="702" type="line"/>
      <point x="331" y="710" type="line"/>
      <point x="335" y="718" type="line"/>
      <point x="339" y="723" type="line"/>
      <point x="345" y="730" type="line"/>
      <point x="350" y="736" type="line"/>
      <point x="355" y="741" type="line"/>
      <point x="360" y="745" type="line"/>
      <point x="366" y="749" type="line"/>
      <point x="372" y="752" type="line"/>
      <point x="378" y="756" type="line"/>
      <point x="384" y="758" type="line"/>
      <point x="390" y="761" type="line"/>
      <point x="397" y="763" type="line"/>
      <point x="404" y="765" type="line"/>
      <point x="410" y="766" type="line"/>
      <point x="417" y="767" type="line"/>
      <point x="424" y="768" type="line"/>
      <point x="431" y="769" type="line"/>
      <point x="438" y="770" type="line"/>
      <point x="445" y="770" type="line"/>
      <point x="452" y="771" type="line"/>
      <point x="459" y="771" type="line"/>
      <point x="466" y="771" type="line"/>
      <point x="473" y="771" type="line"/>
      <point x="550" y="771" type="line"/>
      <point x="550" y="603" type="line"/>
      <point x="550" y="586" type="line"/>
      <point x="549" y="570" type="line"/>
      <point x="547" y="556" type="line"/>
      <point x="545" y="543" type="line"/>
      <point x="542" y="531" type="line"/>
      <point x="539" y="519" type="line"/>
      <point x="536" y="509" type="line"/>
      <point x="532" y="500" type="line"/>
      <point x="528" y="492" type="line"/>
      <point x="524" y="484" type="line"/>
      <point x="520" y="479" type="line"/>
      <point x="514" y="472" type="line"/>
      <point x="509" y="466" type="line"/>
      <point x="504" y="461" type="line"/>
      <point x="499" y="457" type="line"/>
      <point x="493" y="453" type="line"/>
      <point x="487" y="450" type="line"/>
      <point x="481" y="446" type="line"/>
      <point x="475" y="444" type="line"/>
      <point x="469" y="441" type="line"/>
      <point x="462" y="439" type="line"/>
      <point x="455" y="437" type="line"/>
      <point x="449" y="436" type="line"/>
      <point x="442" y="435" type="line"/>
      <point x="435" y="434" type="line"/>
      <point x="428" y="433" type="line"/>
      <point x="421" y="432" type="line"/>
      <point x="414" y="432" type="line"/>
      <point x="407" y="431" type="line"/>
      <point x="400" y="431" type="line"/>
      <point x="393" y="431" type="line"/>
      <point x="386" y="431" type="line"/>
      <point x="309" y="431" type="line"/>
    </contour>
    <contour>
      <point x="266" y="31" type="line"/>
      <point x="251" y="32" type="line"/>
      <point x="236" y="34" type="line"/>
      <point x="223" y="36" type="line"/>
      <point x="211" y="38" type="line"/>
      <point x="200" y="41" type="line"/>
      <point x="190" y="44" type="line"/>
      <point x="181" y="48" type="line"/>
      <point x="172" y="52" type="line"/>
      <point x="165" y="56" type="line"/>
      <point x="158" y="60" type="line"/>
      <point x="152" y="65" type="line"/>
      <point x="147" y="70" type="line"/>
      <point x="141" y="76" type="line"/>
      <point x="137" y="80" type="line"/>
      <point x="133" y="85" type="line"/>
      <point x="129" y="91" type="line"/>
      <point x="126" y="97" type="line"/>
      <point x="123" y="103" type="line"/>
      <point x="121" y="109" type="line"/>
      <point x="119" y="116" type="line"/>
      <point x="117" y="122" type="line"/>
      <point x="115" y="129" type="line"/>
      <point x="114" y="136" type="line"/>
      <point x="113" y="143" type="line"/>
      <point x="112" y="150" type="line"/>
      <point x="111" y="157" type="line"/>
      <point x="111" y="165" type="line"/>
      <point x="110" y="172" type="line"/>
      <point x="110" y="179" type="line"/>
      <point x="110" y="186" type="line"/>
      <point x="110" y="192" type="line"/>
      <point x="110" y="198" type="line"/>
      <point x="110" y="215" type="line"/>
      <point x="111" y="230" type="line"/>
      <point x="113" y="245" type="line"/>
      <point x="115" y="258" type="line"/>
      <point x="117" y="270" type="line"/>
      <point x="120" y="281" type="line"/>
      <point x="123" y="291" type="line"/>
      <point x="127" y="300" type="line"/>
      <point x="131" y="308" type="line"/>
      <point x="135" y="316" type="line"/>
      <point x="140" y="324" type="line"/>
      <point x="144" y="329" type="line"/>
      <point x="149" y="334" type="line"/>
      <point x="154" y="339" type="line"/>
      <point x="160" y="344" type="line"/>
      <point x="165" y="348" type="line"/>
      <point x="171" y="351" type="line"/>
      <point x="177" y="355" type="line"/>
      <point x="183" y="358" type="line"/>
      <point x="190" y="360" type="line"/>
      <point x="197" y="362" type="line"/>
      <point x="203" y="364" type="line"/>
      <point x="210" y="366" type="line"/>
      <point x="217" y="367" type="line"/>
      <point x="224" y="368" type="line"/>
      <point x="231" y="369" type="line"/>
      <point x="239" y="370" type="line"/>
      <point x="246" y="370" type="line"/>
      <point x="253" y="371" type="line"/>
      <point x="260" y="371" type="line"/>
      <point x="267" y="371" type="line"/>
      <point x="273" y="371" type="line"/>
      <point x="365" y="371" type="line"/>
      <point x="469" y="232" type="line"/>
      <point x="270" y="31" type="line"/>
    </contour>
    <contour>
      <point x="303" y="-20" type="curve" smooth="yes"/>
      <point x="506" y="183" type="line"/>
      <point x="656" y="-17" type="line" smooth="yes"/>
      <point x="666" y="-30"/>
      <point x="685" y="-33"/>
      <point x="698" y="-23" type="curve" smooth="yes"/>
      <point x="711" y="-13"/>
      <point x="714" y="6"/>
      <point x="704" y="19" type="curve" smooth="yes"/>
      <point x="549" y="226" type="line"/>
      <point x="693" y="372" type="line"/>
      <point x="700" y="379" type="line" smooth="yes"/>
      <point x="712" y="390"/>
      <point x="712" y="410"/>
      <point x="700" y="421" type="curve" smooth="yes"/>
      <point x="689" y="433"/>
      <point x="669" y="433"/>
      <point x="658" y="421" type="curve" smooth="yes"/>
      <point x="512" y="275" type="line"/>
      <point x="438" y="374" type="line"/>
      <point x="444" y="374" type="line"/>
      <point x="453" y="376" type="line"/>
      <point x="462" y="377" type="line"/>
      <point x="471" y="380" type="line"/>
      <point x="481" y="382" type="line"/>
      <point x="490" y="385" type="line"/>
      <point x="500" y="389" type="line"/>
      <point x="509" y="393" type="line"/>
      <point x="519" y="398" type="line"/>
      <point x="528" y="404" type="line"/>
      <point x="537" y="411" type="line"/>
      <point x="545" y="418" type="line"/>
      <point x="554" y="426" type="line"/>
      <point x="561" y="435" type="line"/>
      <point x="568" y="442" type="line" smooth="yes"/>
      <point x="568" y="443"/>
      <point x="568" y="444"/>
      <point x="569" y="444" type="curve" smooth="yes"/>
      <point x="576" y="454" type="line"/>
      <point x="582" y="466" type="line"/>
      <point x="588" y="478" type="line"/>
      <point x="593" y="490" type="line"/>
      <point x="597" y="504" type="line"/>
      <point x="601" y="518" type="line"/>
      <point x="604" y="533" type="line"/>
      <point x="607" y="550" type="line"/>
      <point x="609" y="567" type="line"/>
      <point x="610" y="585" type="line"/>
      <point x="610" y="603" type="line"/>
      <point x="610" y="801" type="line" smooth="yes"/>
      <point x="610" y="818"/>
      <point x="597" y="831"/>
      <point x="580" y="831" type="curve" smooth="yes"/>
      <point x="472" y="831" type="line"/>
      <point x="465" y="831" type="line"/>
      <point x="457" y="831" type="line"/>
      <point x="450" y="831" type="line"/>
      <point x="441" y="830" type="line"/>
      <point x="433" y="830" type="line"/>
      <point x="424" y="829" type="line"/>
      <point x="415" y="828" type="line"/>
      <point x="406" y="826" type="line"/>
      <point x="397" y="825" type="line"/>
      <point x="388" y="822" type="line"/>
      <point x="378" y="820" type="line"/>
      <point x="369" y="817" type="line"/>
      <point x="359" y="813" type="line"/>
      <point x="350" y="809" type="line"/>
      <point x="340" y="804" type="line"/>
      <point x="331" y="798" type="line"/>
      <point x="322" y="791" type="line"/>
      <point x="314" y="784" type="line"/>
      <point x="305" y="776" type="line"/>
      <point x="298" y="767" type="line"/>
      <point x="291" y="760" type="line" smooth="yes"/>
      <point x="291" y="759"/>
      <point x="291" y="758"/>
      <point x="290" y="758" type="curve" smooth="yes"/>
      <point x="283" y="748" type="line"/>
      <point x="277" y="736" type="line"/>
      <point x="271" y="724" type="line"/>
      <point x="266" y="712" type="line"/>
      <point x="262" y="698" type="line"/>
      <point x="258" y="684" type="line"/>
      <point x="255" y="669" type="line"/>
      <point x="252" y="652" type="line"/>
      <point x="250" y="635" type="line"/>
      <point x="249" y="617" type="line"/>
      <point x="249" y="599" type="line"/>
      <point x="249" y="431" type="line"/>
      <point x="243" y="430" type="line"/>
      <point x="235" y="430" type="line"/>
      <point x="226" y="429" type="line"/>
      <point x="217" y="428" type="line"/>
      <point x="208" y="427" type="line"/>
      <point x="199" y="425" type="line"/>
      <point x="190" y="423" type="line"/>
      <point x="181" y="420" type="line"/>
      <point x="171" y="417" type="line"/>
      <point x="162" y="414" type="line"/>
      <point x="152" y="409" type="line"/>
      <point x="143" y="404" type="line"/>
      <point x="134" y="399" type="line"/>
      <point x="125" y="393" type="line"/>
      <point x="116" y="386" type="line"/>
      <point x="108" y="378" type="line"/>
      <point x="100" y="369" type="line"/>
      <point x="92" y="360" type="line" smooth="yes"/>
      <point x="92" y="359"/>
      <point x="92" y="358"/>
      <point x="91" y="358" type="curve" smooth="yes"/>
      <point x="85" y="349" type="line"/>
      <point x="79" y="338" type="line"/>
      <point x="73" y="326" type="line"/>
      <point x="68" y="313" type="line"/>
      <point x="63" y="300" type="line"/>
      <point x="59" y="285" type="line"/>
      <point x="56" y="270" type="line"/>
      <point x="53" y="254" type="line"/>
      <point x="52" y="237" type="line"/>
      <point x="50" y="219" type="line"/>
      <point x="50" y="200" type="line"/>
      <point x="50" y="192" type="line"/>
      <point x="50" y="185" type="line"/>
      <point x="50" y="178" type="line"/>
      <point x="50" y="170" type="line"/>
      <point x="51" y="162" type="line"/>
      <point x="51" y="153" type="line"/>
      <point x="52" y="145" type="line"/>
      <point x="53" y="136" type="line"/>
      <point x="54" y="127" type="line"/>
      <point x="56" y="118" type="line"/>
      <point x="58" y="109" type="line"/>
      <point x="61" y="100" type="line"/>
      <point x="64" y="90" type="line"/>
      <point x="68" y="81" type="line"/>
      <point x="72" y="72" type="line"/>
      <point x="77" y="63" type="line"/>
      <point x="82" y="53" type="line"/>
      <point x="88" y="45" type="line"/>
      <point x="96" y="36" type="line" smooth="yes"/>
      <point x="96" y="36"/>
      <point x="97" y="35"/>
      <point x="97" y="34" type="curve" smooth="yes"/>
      <point x="103" y="28" type="line"/>
      <point x="112" y="20" type="line"/>
      <point x="122" y="13" type="line"/>
      <point x="132" y="6" type="line"/>
      <point x="143" y="-1" type="line"/>
      <point x="155" y="-6" type="line"/>
      <point x="168" y="-12" type="line"/>
      <point x="181" y="-16" type="line"/>
      <point x="196" y="-20" type="line"/>
      <point x="211" y="-23" type="line"/>
      <point x="227" y="-26" type="line"/>
      <point x="244" y="-27" type="line"/>
      <point x="262" y="-29" type="line"/>
      <point x="281" y="-29" type="line" smooth="yes"/>
      <point x="288" y="-29"/>
      <point x="298" y="-25"/>
    </contour>
  </outline>
</glyph>
<glyph name="asterisk" format="1">
  <advance width="560"/>
  <unicode hex="002A"/>
  <outline>
    <contour>
      <point x="448" y="278" type="curve" smooth="yes"/>
      <point x="461" y="288"/>
      <point x="464" y="307"/>
      <point x="454" y="320" type="curve" smooth="yes"/>
      <point x="340" y="472" type="line"/>
      <point x="480" y="472" type="line" smooth="yes"/>
      <point x="496" y="472"/>
      <point x="510" y="486"/>
      <point x="510" y="502" type="curve" smooth="yes"/>
      <point x="510" y="518"/>
      <point x="496" y="532"/>
      <point x="480" y="532" type="curve" smooth="yes"/>
      <point x="310" y="532" type="line"/>
      <point x="310" y="702" type="line" smooth="yes"/>
      <point x="310" y="718"/>
      <point x="296" y="732"/>
      <point x="280" y="732" type="curve" smooth="yes"/>
      <point x="264" y="732"/>
      <point x="250" y="718"/>
      <point x="250" y="702" type="curve" smooth="yes"/>
      <point x="250" y="532" type="line"/>
      <point x="80" y="532" type="line" smooth="yes"/>
      <point x="64" y="532"/>
      <point x="50" y="518"/>
      <point x="50" y="502" type="curve" smooth="yes"/>
      <point x="50" y="486"/>
      <point x="64" y="472"/>
      <point x="80" y="472" type="curve" smooth="yes"/>
      <point x="222" y="472" type="line"/>
      <point x="121" y="328" type="line"/>
      <point x="115" y="319" type="line" smooth="yes"/>
      <point x="106" y="306"/>
      <point x="110" y="287"/>
      <point x="123" y="277" type="curve" smooth="yes"/>
      <point x="136" y="268"/>
      <point x="155" y="272"/>
      <point x="165" y="285" type="curve" smooth="yes"/>
      <point x="281" y="451" type="line"/>
      <point x="406" y="284" type="line" smooth="yes"/>
      <point x="416" y="271"/>
      <point x="435" y="268"/>
    </contour>
  </outline>
</glyph>
<glyph name="comma" format="1">
  <advance width="260"/>
  <unicode hex="002C"/>
  <outline>
    <contour>
      <point x="80" y="-88" type="curve" smooth="yes"/>
      <point x="180" y="-88" type="line" smooth="yes"/>
      <point x="197" y="-88"/>
      <point x="210" y="-75"/>
      <point x="210" y="-58" type="curve" smooth="yes"/>
      <point x="210" y="142" type="line" smooth="yes"/>
      <point x="210" y="158"/>
      <point x="196" y="172"/>
      <point x="180" y="172" type="curve" smooth="yes"/>
      <point x="164" y="172"/>
      <point x="150" y="158"/>
      <point x="150" y="142" type="curve" smooth="yes"/>
      <point x="150" y="-28" type="line"/>
      <point x="80" y="-28" type="line" smooth="yes"/>
      <point x="64" y="-28"/>
      <point x="50" y="-42"/>
      <point x="50" y="-58" type="curve" smooth="yes"/>
      <point x="50" y="-74"/>
      <point x="64" y="-88"/>
    </contour>
  </outline>
</glyph>
<glyph name="zero" format="1">
  <advance width="760"/>
  <unicode hex="0030"/>
  <outline>
    <contour>
      <point x="280" y="-28" type="line" smooth="yes"/>
      <point x="482" y="-28" type="line"/>
      <point x="500" y="-28" type="line"/>
      <point x="519" y="-27" type="line"/>
      <point x="536" y="-25" type="line"/>
      <point x="552" y="-22" type="line"/>
      <point x="567" y="-19" type="line"/>
      <point x="581" y="-15" type="line"/>
      <point x="595" y="-11" type="line"/>
      <point x="607" y="-6" type="line"/>
      <point x="619" y="0" type="line"/>
      <point x="630" y="6" type="line"/>
      <point x="641" y="13" type="line"/>
      <point x="650" y="21" type="line" smooth="yes"/>
      <point x="650" y="21"/>
      <point x="651" y="22"/>
      <point x="652" y="22" type="curve" smooth="yes"/>
      <point x="659" y="29" type="line"/>
      <point x="666" y="37" type="line"/>
      <point x="673" y="46" type="line"/>
      <point x="680" y="55" type="line"/>
      <point x="685" y="64" type="line"/>
      <point x="690" y="73" type="line"/>
      <point x="694" y="83" type="line"/>
      <point x="698" y="92" type="line"/>
      <point x="700" y="102" type="line"/>
      <point x="703" y="111" type="line"/>
      <point x="705" y="121" type="line"/>
      <point x="706" y="130" type="line"/>
      <point x="708" y="139" type="line"/>
      <point x="708" y="148" type="line"/>
      <point x="709" y="156" type="line"/>
      <point x="710" y="165" type="line"/>
      <point x="710" y="173" type="line"/>
      <point x="710" y="181" type="line"/>
      <point x="710" y="188" type="line"/>
      <point x="710" y="195" type="line"/>
      <point x="710" y="202" type="line"/>
      <point x="710" y="212" type="line"/>
      <point x="710" y="602" type="line"/>
      <point x="710" y="612" type="line"/>
      <point x="709" y="623" type="line"/>
      <point x="708" y="630" type="line"/>
      <point x="706" y="638" type="line"/>
      <point x="705" y="646" type="line"/>
      <point x="703" y="655" type="line"/>
      <point x="701" y="664" type="line"/>
      <point x="698" y="673" type="line"/>
      <point x="695" y="683" type="line"/>
      <point x="691" y="694" type="line"/>
      <point x="687" y="704" type="line"/>
      <point x="682" y="715" type="line"/>
      <point x="676" y="726" type="line"/>
      <point x="670" y="736" type="line"/>
      <point x="662" y="747" type="line"/>
      <point x="654" y="757" type="line"/>
      <point x="645" y="767" type="line"/>
      <point x="635" y="777" type="line" smooth="yes"/>
      <point x="635" y="778"/>
      <point x="634" y="778"/>
      <point x="634" y="779" type="curve" smooth="yes"/>
      <point x="624" y="786" type="line"/>
      <point x="612" y="795" type="line"/>
      <point x="599" y="803" type="line" smooth="yes"/>
      <point x="599" y="803"/>
      <point x="598" y="804"/>
      <point x="597" y="804" type="curve" smooth="yes"/>
      <point x="585" y="810" type="line"/>
      <point x="570" y="817" type="line" smooth="yes"/>
      <point x="569" y="817"/>
      <point x="569" y="817"/>
      <point x="568" y="817" type="curve" smooth="yes"/>
      <point x="554" y="822" type="line"/>
      <point x="537" y="826" type="line"/>
      <point x="519" y="829" type="line"/>
      <point x="499" y="831" type="line"/>
      <point x="479" y="832" type="line"/>
      <point x="468" y="832" type="line"/>
      <point x="278" y="832" type="line"/>
      <point x="260" y="832" type="line"/>
      <point x="241" y="831" type="line"/>
      <point x="224" y="829" type="line"/>
      <point x="208" y="826" type="line"/>
      <point x="193" y="823" type="line"/>
      <point x="179" y="819" type="line"/>
      <point x="165" y="815" type="line"/>
      <point x="153" y="810" type="line"/>
      <point x="141" y="804" type="line"/>
      <point x="130" y="797" type="line"/>
      <point x="119" y="790" type="line"/>
      <point x="110" y="783" type="line" smooth="yes"/>
      <point x="110" y="783"/>
      <point x="109" y="782"/>
      <point x="108" y="781" type="curve" smooth="yes"/>
      <point x="101" y="775" type="line"/>
      <point x="94" y="767" type="line"/>
      <point x="87" y="758" type="line"/>
      <point x="80" y="749" type="line"/>
      <point x="75" y="740" type="line"/>
      <point x="70" y="730" type="line"/>
      <point x="66" y="721" type="line"/>
      <point x="62" y="711" type="line"/>
      <point x="60" y="702" type="line"/>
      <point x="57" y="692" type="line"/>
      <point x="55" y="683" type="line"/>
      <point x="54" y="674" type="line"/>
      <point x="52" y="665" type="line"/>
      <point x="52" y="656" type="line"/>
      <point x="51" y="647" type="line"/>
      <point x="50" y="639" type="line"/>
      <point x="50" y="631" type="line"/>
      <point x="50" y="623" type="line"/>
      <point x="50" y="616" type="line"/>
      <point x="50" y="609" type="line"/>
      <point x="50" y="602" type="line"/>
      <point x="50" y="592" type="line"/>
      <point x="50" y="202" type="line"/>
      <point x="50" y="195" type="line"/>
      <point x="50" y="188" type="line"/>
      <point x="50" y="181" type="line"/>
      <point x="50" y="173" type="line"/>
      <point x="51" y="165" type="line"/>
      <point x="51" y="157" type="line"/>
      <point x="52" y="148" type="line"/>
      <point x="53" y="139" type="line"/>
      <point x="54" y="130" type="line"/>
      <point x="56" y="121" type="line"/>
      <point x="58" y="112" type="line"/>
      <point x="61" y="103" type="line"/>
      <point x="64" y="93" type="line"/>
      <point x="67" y="84" type="line"/>
      <point x="72" y="74" type="line"/>
      <point x="77" y="65" type="line"/>
      <point x="82" y="56" type="line"/>
      <point x="88" y="47" type="line"/>
      <point x="95" y="38" type="line"/>
      <point x="103" y="30" type="line"/>
      <point x="112" y="22" type="line"/>
      <point x="121" y="14" type="line" smooth="yes"/>
      <point x="122" y="14"/>
      <point x="123" y="14"/>
      <point x="123" y="13" type="curve" smooth="yes"/>
      <point x="132" y="7" type="line"/>
      <point x="143" y="1" type="line"/>
      <point x="155" y="-5" type="line"/>
      <point x="168" y="-10" type="line"/>
      <point x="181" y="-15" type="line"/>
      <point x="196" y="-19" type="line"/>
      <point x="211" y="-22" type="line"/>
      <point x="227" y="-25" type="line"/>
      <point x="244" y="-26" type="line"/>
      <point x="262" y="-28" type="line"/>
      <point x="280" y="-28" type="line"/>
    </contour>
    <contour>
      <point x="121" y="112" type="line"/>
      <point x="119" y="119" type="line"/>
      <point x="117" y="125" type="line"/>
      <point x="115" y="132" type="line"/>
      <point x="114" y="139" type="line"/>
      <point x="113" y="146" type="line"/>
      <point x="112" y="153" type="line"/>
      <point x="111" y="161" type="line"/>
      <point x="111" y="168" type="line"/>
      <point x="110" y="175" type="line"/>
      <point x="110" y="182" type="line"/>
      <point x="110" y="189" type="line"/>
      <point x="110" y="195" type="line"/>
      <point x="110" y="202" type="line"/>
      <point x="110" y="592" type="line"/>
      <point x="110" y="602" type="line"/>
      <point x="110" y="609" type="line"/>
      <point x="110" y="615" type="line"/>
      <point x="110" y="622" type="line"/>
      <point x="110" y="629" type="line"/>
      <point x="110" y="636" type="line"/>
      <point x="111" y="643" type="line"/>
      <point x="111" y="650" type="line"/>
      <point x="112" y="657" type="line"/>
      <point x="113" y="664" type="line"/>
      <point x="114" y="671" type="line"/>
      <point x="115" y="678" type="line"/>
      <point x="117" y="684" type="line"/>
      <point x="119" y="691" type="line"/>
      <point x="121" y="697" type="line"/>
      <point x="124" y="703" type="line"/>
      <point x="127" y="709" type="line"/>
      <point x="130" y="715" type="line"/>
      <point x="134" y="721" type="line"/>
      <point x="138" y="726" type="line"/>
      <point x="142" y="731" type="line"/>
      <point x="149" y="737" type="line"/>
      <point x="153" y="741" type="line"/>
      <point x="160" y="746" type="line"/>
      <point x="167" y="750" type="line"/>
      <point x="175" y="754" type="line"/>
      <point x="184" y="758" type="line"/>
      <point x="195" y="761" type="line"/>
      <point x="206" y="764" type="line"/>
      <point x="218" y="767" type="line"/>
      <point x="231" y="769" type="line"/>
      <point x="245" y="771" type="line"/>
      <point x="261" y="772" type="line"/>
      <point x="278" y="772" type="line"/>
      <point x="468" y="772" type="line"/>
      <point x="477" y="772" type="line"/>
      <point x="493" y="772" type="line"/>
      <point x="509" y="770" type="line"/>
      <point x="523" y="768" type="line"/>
      <point x="535" y="765" type="line"/>
      <point x="548" y="761" type="line"/>
      <point x="558" y="757" type="line"/>
      <point x="569" y="751" type="line"/>
      <point x="577" y="746" type="line"/>
      <point x="586" y="740" type="line"/>
      <point x="594" y="733" type="line"/>
      <point x="595" y="732" type="line"/>
      <point x="122" y="109" type="line"/>
    </contour>
    <contour>
      <point x="266" y="32" type="line"/>
      <point x="251" y="33" type="line"/>
      <point x="236" y="35" type="line"/>
      <point x="223" y="37" type="line"/>
      <point x="211" y="39" type="line"/>
      <point x="200" y="42" type="line"/>
      <point x="190" y="45" type="line"/>
      <point x="181" y="49" type="line"/>
      <point x="173" y="53" type="line"/>
      <point x="165" y="57" type="line"/>
      <point x="161" y="60" type="line"/>
      <point x="632" y="681" type="line"/>
      <point x="632" y="681" type="line"/>
      <point x="635" y="673" type="line"/>
      <point x="638" y="665" type="line"/>
      <point x="640" y="657" type="line"/>
      <point x="643" y="649" type="line"/>
      <point x="644" y="642" type="line"/>
      <point x="646" y="635" type="line"/>
      <point x="647" y="629" type="line"/>
      <point x="648" y="623" type="line"/>
      <point x="649" y="618" type="line"/>
      <point x="650" y="609" type="line"/>
      <point x="650" y="602" type="line"/>
      <point x="650" y="212" type="line"/>
      <point x="650" y="202" type="line"/>
      <point x="650" y="195" type="line"/>
      <point x="650" y="189" type="line"/>
      <point x="650" y="182" type="line"/>
      <point x="650" y="175" type="line"/>
      <point x="650" y="168" type="line"/>
      <point x="649" y="161" type="line"/>
      <point x="649" y="154" type="line"/>
      <point x="648" y="147" type="line"/>
      <point x="647" y="140" type="line"/>
      <point x="646" y="133" type="line"/>
      <point x="645" y="126" type="line"/>
      <point x="643" y="119" type="line"/>
      <point x="641" y="113" type="line"/>
      <point x="639" y="106" type="line"/>
      <point x="636" y="100" type="line"/>
      <point x="633" y="94" type="line"/>
      <point x="630" y="89" type="line"/>
      <point x="626" y="83" type="line"/>
      <point x="622" y="78" type="line"/>
      <point x="618" y="73" type="line"/>
      <point x="611" y="67" type="line"/>
      <point x="607" y="63" type="line"/>
      <point x="600" y="58" type="line"/>
      <point x="593" y="54" type="line"/>
      <point x="585" y="50" type="line"/>
      <point x="576" y="46" type="line"/>
      <point x="566" y="43" type="line"/>
      <point x="554" y="40" type="line"/>
      <point x="542" y="37" type="line"/>
      <point x="529" y="35" type="line"/>
      <point x="515" y="33" type="line"/>
      <point x="499" y="32" type="line"/>
      <point x="482" y="32" type="line"/>
      <point x="282" y="32" type="line"/>
    </contour>
  </outline>
</glyph>
<glyph name="one" format="1">
  <advance width="760"/>
  <unicode hex="0031"/>
  <outline>
    <contour>
      <point x="80" y="-29" type="curve" smooth="yes"/>
      <point x="680" y="-29" type="line" smooth="yes"/>
      <point x="696" y="-29"/>
      <point x="710" y="-15"/>
      <point x="710" y="1" type="curve" smooth="yes"/>
      <point x="710" y="17"/>
      <point x="696" y="31"/>
      <point x="680" y="31" type="curve" smooth="yes"/>
      <point x="360" y="31" type="line"/>
      <point x="360" y="31" type="line"/>
      <point x="367" y="41" type="line"/>
      <point x="374" y="51" type="line"/>
      <point x="381" y="62" type="line"/>
      <point x="387" y="74" type="line"/>
      <point x="392" y="87" type="line"/>
      <point x="397" y="100" type="line"/>
      <point x="401" y="115" type="line"/>
      <point x="404" y="130" type="line"/>
      <point x="407" y="146" type="line"/>
      <point x="408" y="163" type="line"/>
      <point x="410" y="181" type="line"/>
      <point x="410" y="200" type="line"/>
      <point x="410" y="211" type="line"/>
      <point x="410" y="791" type="line" smooth="yes"/>
      <point x="410" y="830"/>
      <point x="352" y="832"/>
      <point x="350" y="792" type="curve" smooth="yes"/>
      <point x="350" y="785" type="line"/>
      <point x="349" y="768" type="line"/>
      <point x="347" y="754" type="line"/>
      <point x="345" y="741" type="line"/>
      <point x="342" y="729" type="line"/>
      <point x="339" y="718" type="line"/>
      <point x="336" y="708" type="line"/>
      <point x="332" y="698" type="line"/>
      <point x="328" y="690" type="line"/>
      <point x="324" y="683" type="line"/>
      <point x="319" y="676" type="line"/>
      <point x="314" y="670" type="line"/>
      <point x="309" y="665" type="line"/>
      <point x="305" y="661" type="line"/>
      <point x="299" y="656" type="line"/>
      <point x="293" y="652" type="line"/>
      <point x="287" y="649" type="line"/>
      <point x="281" y="646" type="line"/>
      <point x="275" y="643" type="line"/>
      <point x="269" y="641" type="line"/>
      <point x="262" y="639" type="line"/>
      <point x="256" y="637" type="line"/>
      <point x="249" y="635" type="line"/>
      <point x="242" y="634" type="line"/>
      <point x="235" y="633" type="line"/>
      <point x="228" y="633" type="line"/>
      <point x="221" y="632" type="line"/>
      <point x="214" y="632" type="line"/>
      <point x="207" y="631" type="line"/>
      <point x="200" y="631" type="line"/>
      <point x="193" y="631" type="line"/>
      <point x="187" y="631" type="line"/>
      <point x="90" y="631" type="line"/>
      <point x="80" y="631" type="line" smooth="yes"/>
      <point x="64" y="631"/>
      <point x="50" y="617"/>
      <point x="50" y="601" type="curve" smooth="yes"/>
      <point x="50" y="585"/>
      <point x="64" y="571"/>
      <point x="80" y="571" type="curve" smooth="yes"/>
      <point x="187" y="571" type="line"/>
      <point x="194" y="571" type="line"/>
      <point x="201" y="571" type="line"/>
      <point x="209" y="571" type="line"/>
      <point x="217" y="572" type="line"/>
      <point x="226" y="572" type="line"/>
      <point x="235" y="573" type="line"/>
      <point x="243" y="574" type="line"/>
      <point x="253" y="575" type="line"/>
      <point x="262" y="577" type="line"/>
      <point x="271" y="579" type="line"/>
      <point x="281" y="582" type="line"/>
      <point x="290" y="585" type="line"/>
      <point x="300" y="588" type="line"/>
      <point x="309" y="592" type="line"/>
      <point x="318" y="597" type="line"/>
      <point x="328" y="603" type="line"/>
      <point x="336" y="609" type="line"/>
      <point x="343" y="615" type="line" smooth="yes"/>
      <point x="344" y="615"/>
      <point x="345" y="616"/>
      <point x="345" y="616" type="curve" smooth="yes"/>
      <point x="350" y="621" type="line"/>
      <point x="350" y="211" type="line"/>
      <point x="350" y="202" type="line"/>
      <point x="350" y="185" type="line"/>
      <point x="349" y="170" type="line"/>
      <point x="347" y="155" type="line"/>
      <point x="345" y="142" type="line"/>
      <point x="343" y="130" type="line"/>
      <point x="340" y="119" type="line"/>
      <point x="337" y="109" type="line"/>
      <point x="333" y="100" type="line"/>
      <point x="329" y="92" type="line"/>
      <point x="325" y="85" type="line"/>
      <point x="320" y="78" type="line"/>
      <point x="316" y="72" type="line"/>
      <point x="311" y="67" type="line"/>
      <point x="305" y="61" type="line"/>
      <point x="300" y="57" type="line"/>
      <point x="295" y="53" type="line"/>
      <point x="289" y="50" type="line"/>
      <point x="283" y="47" type="line"/>
      <point x="277" y="44" type="line"/>
      <point x="270" y="41" type="line"/>
      <point x="264" y="39" type="line"/>
      <point x="257" y="37" type="line"/>
      <point x="250" y="36" type="line"/>
      <point x="243" y="34" type="line"/>
      <point x="236" y="33" type="line"/>
      <point x="229" y="33" type="line"/>
      <point x="222" y="32" type="line"/>
      <point x="214" y="32" type="line"/>
      <point x="207" y="31" type="line"/>
      <point x="200" y="31" type="line"/>
      <point x="193" y="31" type="line"/>
      <point x="187" y="31" type="line"/>
      <point x="180" y="31" type="line" smooth="yes"/>
      <point x="80" y="31" type="line" smooth="yes"/>
      <point x="64" y="31"/>
      <point x="50" y="17"/>
      <point x="50" y="1" type="curve" smooth="yes"/>
      <point x="50" y="-15"/>
      <point x="64" y="-29"/>
    </contour>
  </outline>
</glyph>
<glyph name="two" format="1">
  <advance width="760"/>
  <unicode hex="0032"/>
  <outline>
    <contour>
      <point x="80" y="-30" type="curve" smooth="yes"/>
      <point x="680" y="-30" type="line" smooth="yes"/>
      <point x="696" y="-30"/>
      <point x="710" y="-16"/>
      <point x="710" y="0" type="curve" smooth="yes"/>
      <point x="710" y="16"/>
      <point x="696" y="30"/>
      <point x="680" y="30" type="curve" smooth="yes"/>
      <point x="110" y="30" type="line"/>
      <point x="110" y="200" type="line"/>
      <point x="110" y="217" type="line"/>
      <point x="111" y="233" type="line"/>
      <point x="113" y="247" type="line"/>
      <point x="115" y="260" type="line"/>
      <point x="118" y="272" type="line"/>
      <point x="121" y="283" type="line"/>
      <point x="124" y="293" type="line"/>
      <point x="128" y="303" type="line"/>
      <point x="132" y="311" type="line"/>
      <point x="136" y="318" type="line"/>
      <point x="141" y="325" type="line"/>
      <point x="146" y="331" type="line"/>
      <point x="151" y="336" type="line"/>
      <point x="155" y="340" type="line"/>
      <point x="161" y="345" type="line"/>
      <point x="167" y="349" type="line"/>
      <point x="173" y="352" type="line"/>
      <point x="179" y="355" type="line"/>
      <point x="185" y="358" type="line"/>
      <point x="191" y="360" type="line"/>
      <point x="198" y="362" type="line"/>
      <point x="204" y="364" type="line"/>
      <point x="211" y="366" type="line"/>
      <point x="218" y="367" type="line"/>
      <point x="225" y="368" type="line"/>
      <point x="232" y="368" type="line"/>
      <point x="239" y="369" type="line"/>
      <point x="246" y="369" type="line"/>
      <point x="253" y="370" type="line"/>
      <point x="260" y="370" type="line"/>
      <point x="267" y="370" type="line"/>
      <point x="273" y="370" type="line"/>
      <point x="487" y="370" type="line"/>
      <point x="494" y="370" type="line"/>
      <point x="501" y="370" type="line"/>
      <point x="509" y="370" type="line"/>
      <point x="517" y="371" type="line"/>
      <point x="525" y="371" type="line"/>
      <point x="534" y="372" type="line"/>
      <point x="543" y="373" type="line"/>
      <point x="551" y="374" type="line"/>
      <point x="561" y="376" type="line"/>
      <point x="570" y="378" type="line"/>
      <point x="579" y="380" type="line"/>
      <point x="589" y="383" type="line"/>
      <point x="598" y="387" type="line"/>
      <point x="607" y="391" type="line"/>
      <point x="617" y="395" type="line"/>
      <point x="626" y="401" type="line"/>
      <point x="635" y="407" type="line"/>
      <point x="643" y="414" type="line" smooth="yes"/>
      <point x="644" y="414"/>
      <point x="645" y="415"/>
      <point x="645" y="415" type="curve" smooth="yes"/>
      <point x="652" y="422" type="line"/>
      <point x="660" y="430" type="line"/>
      <point x="667" y="440" type="line"/>
      <point x="674" y="450" type="line"/>
      <point x="681" y="461" type="line"/>
      <point x="687" y="473" type="line"/>
      <point x="692" y="486" type="line"/>
      <point x="697" y="499" type="line"/>
      <point x="701" y="514" type="line"/>
      <point x="704" y="529" type="line"/>
      <point x="707" y="545" type="line"/>
      <point x="708" y="562" type="line"/>
      <point x="710" y="580" type="line"/>
      <point x="710" y="599" type="line"/>
      <point x="710" y="610" type="line"/>
      <point x="709" y="621" type="line"/>
      <point x="708" y="628" type="line"/>
      <point x="707" y="636" type="line"/>
      <point x="705" y="644" type="line"/>
      <point x="704" y="652" type="line"/>
      <point x="702" y="662" type="line"/>
      <point x="699" y="671" type="line"/>
      <point x="696" y="681" type="line"/>
      <point x="692" y="691" type="line"/>
      <point x="688" y="702" type="line"/>
      <point x="683" y="713" type="line"/>
      <point x="677" y="723" type="line"/>
      <point x="671" y="734" type="line"/>
      <point x="664" y="745" type="line"/>
      <point x="656" y="755" type="line"/>
      <point x="647" y="765" type="line"/>
      <point x="637" y="775" type="line"/>
      <point x="626" y="784" type="line" smooth="yes"/>
      <point x="625" y="785"/>
      <point x="625" y="785"/>
      <point x="624" y="786" type="curve" smooth="yes"/>
      <point x="614" y="793" type="line"/>
      <point x="601" y="801" type="line" smooth="yes"/>
      <point x="600" y="801"/>
      <point x="600" y="802"/>
      <point x="599" y="802" type="curve" smooth="yes"/>
      <point x="587" y="808" type="line"/>
      <point x="572" y="815" type="line" smooth="yes"/>
      <point x="571" y="815"/>
      <point x="570" y="815"/>
      <point x="570" y="815" type="curve" smooth="yes"/>
      <point x="556" y="820" type="line"/>
      <point x="539" y="824" type="line"/>
      <point x="521" y="827" type="line"/>
      <point x="501" y="829" type="line"/>
      <point x="481" y="830" type="line"/>
      <point x="470" y="830" type="line"/>
      <point x="273" y="830" type="line"/>
      <point x="266" y="830" type="line"/>
      <point x="259" y="830" type="line"/>
      <point x="251" y="830" type="line"/>
      <point x="243" y="829" type="line"/>
      <point x="235" y="829" type="line"/>
      <point x="226" y="828" type="line"/>
      <point x="217" y="827" type="line"/>
      <point x="209" y="826" type="line"/>
      <point x="199" y="824" type="line"/>
      <point x="190" y="822" type="line"/>
      <point x="181" y="820" type="line"/>
      <point x="171" y="817" type="line"/>
      <point x="162" y="813" type="line"/>
      <point x="153" y="809" type="line"/>
      <point x="143" y="805" type="line"/>
      <point x="134" y="799" type="line"/>
      <point x="125" y="793" type="line"/>
      <point x="117" y="786" type="line" smooth="yes"/>
      <point x="116" y="786"/>
      <point x="115" y="785"/>
      <point x="115" y="785" type="curve" smooth="yes"/>
      <point x="108" y="778" type="line"/>
      <point x="100" y="770" type="line"/>
      <point x="93" y="760" type="line"/>
      <point x="86" y="750" type="line"/>
      <point x="79" y="739" type="line"/>
      <point x="73" y="727" type="line"/>
      <point x="68" y="714" type="line"/>
      <point x="63" y="701" type="line"/>
      <point x="59" y="686" type="line"/>
      <point x="56" y="671" type="line"/>
      <point x="53" y="655" type="line"/>
      <point x="52" y="638" type="line"/>
      <point x="50" y="620" type="line"/>
      <point x="50" y="601" type="line" smooth="yes"/>
      <point x="50" y="584"/>
      <point x="63" y="570"/>
      <point x="79" y="570" type="curve" smooth="yes"/>
      <point x="96" y="570"/>
      <point x="110" y="583"/>
      <point x="110" y="599" type="curve" smooth="yes"/>
      <point x="110" y="616" type="line"/>
      <point x="111" y="631" type="line"/>
      <point x="113" y="646" type="line"/>
      <point x="115" y="659" type="line"/>
      <point x="117" y="671" type="line"/>
      <point x="120" y="682" type="line"/>
      <point x="123" y="692" type="line"/>
      <point x="127" y="701" type="line"/>
      <point x="131" y="709" type="line"/>
      <point x="135" y="716" type="line"/>
      <point x="140" y="723" type="line"/>
      <point x="144" y="729" type="line"/>
      <point x="149" y="734" type="line"/>
      <point x="155" y="740" type="line"/>
      <point x="160" y="744" type="line"/>
      <point x="165" y="748" type="line"/>
      <point x="171" y="751" type="line"/>
      <point x="177" y="754" type="line"/>
      <point x="183" y="757" type="line"/>
      <point x="190" y="760" type="line"/>
      <point x="196" y="762" type="line"/>
      <point x="203" y="764" type="line"/>
      <point x="210" y="765" type="line"/>
      <point x="217" y="767" type="line"/>
      <point x="224" y="768" type="line"/>
      <point x="231" y="768" type="line"/>
      <point x="238" y="769" type="line"/>
      <point x="246" y="769" type="line"/>
      <point x="253" y="770" type="line"/>
      <point x="260" y="770" type="line"/>
      <point x="267" y="770" type="line"/>
      <point x="273" y="770" type="line"/>
      <point x="470" y="770" type="line"/>
      <point x="479" y="770" type="line"/>
      <point x="495" y="770" type="line"/>
      <point x="511" y="768" type="line"/>
      <point x="525" y="766" type="line"/>
      <point x="537" y="763" type="line"/>
      <point x="550" y="759" type="line"/>
      <point x="560" y="755" type="line"/>
      <point x="571" y="749" type="line"/>
      <point x="579" y="744" type="line"/>
      <point x="588" y="738" type="line"/>
      <point x="595" y="732" type="line"/>
      <point x="602" y="725" type="line"/>
      <point x="608" y="718" type="line"/>
      <point x="614" y="711" type="line"/>
      <point x="620" y="703" type="line"/>
      <point x="624" y="695" type="line"/>
      <point x="629" y="687" type="line"/>
      <point x="632" y="679" type="line"/>
      <point x="636" y="671" type="line"/>
      <point x="639" y="663" type="line"/>
      <point x="641" y="655" type="line"/>
      <point x="643" y="648" type="line"/>
      <point x="645" y="640" type="line"/>
      <point x="646" y="633" type="line"/>
      <point x="647" y="627" type="line"/>
      <point x="648" y="621" type="line"/>
      <point x="649" y="616" type="line"/>
      <point x="650" y="608" type="line"/>
      <point x="650" y="601" type="line"/>
      <point x="650" y="584" type="line"/>
      <point x="649" y="569" type="line"/>
      <point x="647" y="554" type="line"/>
      <point x="645" y="541" type="line"/>
      <point x="643" y="529" type="line"/>
      <point x="640" y="518" type="line"/>
      <point x="637" y="508" type="line"/>
      <point x="633" y="499" type="line"/>
      <point x="629" y="491" type="line"/>
      <point x="625" y="484" type="line"/>
      <point x="620" y="477" type="line"/>
      <point x="616" y="471" type="line"/>
      <point x="611" y="466" type="line"/>
      <point x="605" y="460" type="line"/>
      <point x="600" y="456" type="line"/>
      <point x="595" y="452" type="line"/>
      <point x="589" y="449" type="line"/>
      <point x="583" y="446" type="line"/>
      <point x="577" y="443" type="line"/>
      <point x="570" y="440" type="line"/>
      <point x="564" y="438" type="line"/>
      <point x="557" y="436" type="line"/>
      <point x="550" y="435" type="line"/>
      <point x="543" y="433" type="line"/>
      <point x="536" y="432" type="line"/>
      <point x="529" y="432" type="line"/>
      <point x="522" y="431" type="line"/>
      <point x="514" y="431" type="line"/>
      <point x="507" y="430" type="line"/>
      <point x="500" y="430" type="line"/>
      <point x="493" y="430" type="line"/>
      <point x="487" y="430" type="line"/>
      <point x="273" y="430" type="line"/>
      <point x="266" y="430" type="line"/>
      <point x="259" y="430" type="line"/>
      <point x="251" y="430" type="line"/>
      <point x="243" y="429" type="line"/>
      <point x="234" y="429" type="line"/>
      <point x="225" y="428" type="line"/>
      <point x="217" y="427" type="line"/>
      <point x="207" y="426" type="line"/>
      <point x="198" y="424" type="line"/>
      <point x="189" y="422" type="line"/>
      <point x="179" y="419" type="line"/>
      <point x="170" y="416" type="line"/>
      <point x="160" y="413" type="line"/>
      <point x="151" y="409" type="line"/>
      <point x="142" y="404" type="line"/>
      <point x="132" y="398" type="line"/>
      <point x="124" y="392" type="line"/>
      <point x="117" y="386" type="line" smooth="yes"/>
      <point x="116" y="386"/>
      <point x="115" y="385"/>
      <point x="115" y="385" type="curve" smooth="yes"/>
      <point x="107" y="377" type="line"/>
      <point x="99" y="368" type="line"/>
      <point x="91" y="358" type="line"/>
      <point x="84" y="348" type="line"/>
      <point x="78" y="337" type="line"/>
      <point x="72" y="325" type="line"/>
      <point x="67" y="313" type="line"/>
      <point x="63" y="299" type="line"/>
      <point x="59" y="285" type="line"/>
      <point x="56" y="269" type="line"/>
      <point x="53" y="253" type="line"/>
      <point x="51" y="236" type="line"/>
      <point x="50" y="218" type="line"/>
      <point x="50" y="200" type="line"/>
      <point x="50" y="0" type="line" smooth="yes"/>
      <point x="50" y="-17"/>
      <point x="63" y="-30"/>
    </contour>
  </outline>
</glyph>
<glyph name="four" format="1">
  <advance width="754"/>
  <unicode hex="0034"/>
  <outline>
    <contour>
      <point x="674" y="-29" type="curve" smooth="yes"/>
      <point x="690" y="-29"/>
      <point x="704" y="-15"/>
      <point x="704" y="1" type="curve" smooth="yes"/>
      <point x="704" y="600" type="line" smooth="yes"/>
      <point x="704" y="616"/>
      <point x="690" y="630"/>
      <point x="674" y="630" type="curve" smooth="yes"/>
      <point x="658" y="630"/>
      <point x="644" y="616"/>
      <point x="644" y="600" type="curve" smooth="yes"/>
      <point x="644" y="280" type="line"/>
      <point x="644" y="280" type="line"/>
      <point x="634" y="287" type="line"/>
      <point x="624" y="294" type="line"/>
      <point x="613" y="301" type="line"/>
      <point x="601" y="307" type="line"/>
      <point x="588" y="312" type="line"/>
      <point x="575" y="317" type="line"/>
      <point x="560" y="321" type="line"/>
      <point x="545" y="324" type="line"/>
      <point x="529" y="327" type="line"/>
      <point x="512" y="328" type="line"/>
      <point x="494" y="330" type="line"/>
      <point x="475" y="330" type="line"/>
      <point x="127" y="330" type="line"/>
      <point x="395" y="776" type="line"/>
      <point x="400" y="785" type="line" smooth="yes"/>
      <point x="408" y="798"/>
      <point x="403" y="817"/>
      <point x="389" y="826" type="curve" smooth="yes"/>
      <point x="376" y="834"/>
      <point x="357" y="829"/>
      <point x="348" y="815" type="curve" smooth="yes"/>
      <point x="59" y="333" type="line"/>
      <point x="53" y="324" type="line" smooth="yes"/>
      <point x="49" y="316"/>
      <point x="48" y="302"/>
      <point x="53" y="294" type="curve" smooth="yes"/>
      <point x="58" y="285" type="line" smooth="yes"/>
      <point x="63" y="277"/>
      <point x="74" y="270"/>
      <point x="84" y="270" type="curve" smooth="yes"/>
      <point x="473" y="270" type="line"/>
      <point x="490" y="270" type="line"/>
      <point x="505" y="269" type="line"/>
      <point x="520" y="267" type="line"/>
      <point x="533" y="265" type="line"/>
      <point x="545" y="263" type="line"/>
      <point x="556" y="260" type="line"/>
      <point x="566" y="257" type="line"/>
      <point x="575" y="253" type="line"/>
      <point x="583" y="249" type="line"/>
      <point x="590" y="245" type="line"/>
      <point x="597" y="240" type="line"/>
      <point x="603" y="236" type="line"/>
      <point x="608" y="231" type="line"/>
      <point x="614" y="225" type="line"/>
      <point x="618" y="220" type="line"/>
      <point x="622" y="215" type="line"/>
      <point x="625" y="209" type="line"/>
      <point x="628" y="203" type="line"/>
      <point x="631" y="197" type="line"/>
      <point x="634" y="190" type="line"/>
      <point x="636" y="184" type="line"/>
      <point x="638" y="177" type="line"/>
      <point x="639" y="170" type="line"/>
      <point x="641" y="163" type="line"/>
      <point x="642" y="156" type="line"/>
      <point x="642" y="149" type="line"/>
      <point x="643" y="142" type="line"/>
      <point x="643" y="134" type="line"/>
      <point x="644" y="127" type="line"/>
      <point x="644" y="120" type="line"/>
      <point x="644" y="113" type="line"/>
      <point x="644" y="107" type="line"/>
      <point x="644" y="100" type="line" smooth="yes"/>
      <point x="644" y="1" type="line" smooth="yes"/>
      <point x="644" y="-15"/>
      <point x="658" y="-29"/>
    </contour>
  </outline>
</glyph>
<glyph name="five" format="1">
  <advance width="760"/>
  <unicode hex="0035"/>
  <outline>
    <contour>
      <point x="280" y="-29" type="curve" smooth="yes"/>
      <point x="487" y="-29" type="line"/>
      <point x="494" y="-29" type="line"/>
      <point x="501" y="-29" type="line"/>
      <point x="509" y="-29" type="line"/>
      <point x="517" y="-28" type="line"/>
      <point x="525" y="-28" type="line"/>
      <point x="534" y="-27" type="line"/>
      <point x="543" y="-26" type="line"/>
      <point x="551" y="-25" type="line"/>
      <point x="561" y="-23" type="line"/>
      <point x="570" y="-21" type="line"/>
      <point x="579" y="-19" type="line"/>
      <point x="589" y="-16" type="line"/>
      <point x="598" y="-12" type="line"/>
      <point x="607" y="-8" type="line"/>
      <point x="617" y="-4" type="line"/>
      <point x="626" y="2" type="line"/>
      <point x="635" y="8" type="line"/>
      <point x="643" y="15" type="line" smooth="yes"/>
      <point x="644" y="15"/>
      <point x="645" y="16"/>
      <point x="645" y="16" type="curve" smooth="yes"/>
      <point x="652" y="23" type="line"/>
      <point x="660" y="31" type="line"/>
      <point x="667" y="41" type="line"/>
      <point x="674" y="51" type="line"/>
      <point x="681" y="62" type="line"/>
      <point x="687" y="74" type="line"/>
      <point x="692" y="87" type="line"/>
      <point x="697" y="100" type="line"/>
      <point x="701" y="115" type="line"/>
      <point x="704" y="130" type="line"/>
      <point x="707" y="146" type="line"/>
      <point x="708" y="163" type="line"/>
      <point x="710" y="181" type="line"/>
      <point x="710" y="200" type="line"/>
      <point x="710" y="208" type="line"/>
      <point x="710" y="215" type="line"/>
      <point x="710" y="222" type="line"/>
      <point x="710" y="230" type="line"/>
      <point x="709" y="238" type="line"/>
      <point x="709" y="246" type="line"/>
      <point x="708" y="255" type="line"/>
      <point x="707" y="264" type="line"/>
      <point x="706" y="272" type="line"/>
      <point x="704" y="282" type="line"/>
      <point x="702" y="291" type="line"/>
      <point x="700" y="300" type="line"/>
      <point x="697" y="310" type="line"/>
      <point x="693" y="319" type="line"/>
      <point x="689" y="328" type="line"/>
      <point x="685" y="338" type="line"/>
      <point x="679" y="347" type="line"/>
      <point x="673" y="356" type="line"/>
      <point x="666" y="364" type="line" smooth="yes"/>
      <point x="666" y="365"/>
      <point x="665" y="366"/>
      <point x="665" y="366" type="curve" smooth="yes"/>
      <point x="658" y="373" type="line"/>
      <point x="650" y="381" type="line"/>
      <point x="640" y="388" type="line"/>
      <point x="630" y="395" type="line"/>
      <point x="619" y="402" type="line"/>
      <point x="607" y="408" type="line"/>
      <point x="594" y="413" type="line"/>
      <point x="581" y="418" type="line"/>
      <point x="566" y="422" type="line"/>
      <point x="551" y="425" type="line"/>
      <point x="535" y="428" type="line"/>
      <point x="518" y="429" type="line"/>
      <point x="500" y="431" type="line"/>
      <point x="481" y="431" type="line"/>
      <point x="110" y="431" type="line"/>
      <point x="110" y="601" type="line"/>
      <point x="110" y="608" type="line"/>
      <point x="110" y="614" type="line"/>
      <point x="110" y="621" type="line"/>
      <point x="110" y="628" type="line"/>
      <point x="111" y="635" type="line"/>
      <point x="111" y="643" type="line"/>
      <point x="112" y="650" type="line"/>
      <point x="112" y="657" type="line"/>
      <point x="113" y="664" type="line"/>
      <point x="115" y="671" type="line"/>
      <point x="116" y="678" type="line"/>
      <point x="118" y="685" type="line"/>
      <point x="120" y="691" type="line"/>
      <point x="123" y="698" type="line"/>
      <point x="126" y="704" type="line"/>
      <point x="129" y="710" type="line"/>
      <point x="132" y="716" type="line"/>
      <point x="136" y="721" type="line"/>
      <point x="140" y="726" type="line"/>
      <point x="146" y="732" type="line"/>
      <point x="151" y="737" type="line"/>
      <point x="157" y="741" type="line"/>
      <point x="164" y="746" type="line"/>
      <point x="171" y="750" type="line"/>
      <point x="179" y="754" type="line"/>
      <point x="188" y="758" type="line"/>
      <point x="198" y="761" type="line"/>
      <point x="209" y="764" type="line"/>
      <point x="221" y="766" type="line"/>
      <point x="234" y="768" type="line"/>
      <point x="249" y="770" type="line"/>
      <point x="264" y="771" type="line"/>
      <point x="281" y="771" type="line"/>
      <point x="670" y="771" type="line"/>
      <point x="680" y="771" type="line" smooth="yes"/>
      <point x="696" y="771"/>
      <point x="710" y="785"/>
      <point x="710" y="801" type="curve" smooth="yes"/>
      <point x="710" y="817"/>
      <point x="696" y="831"/>
      <point x="680" y="831" type="curve" smooth="yes"/>
      <point x="279" y="831" type="line"/>
      <point x="260" y="831" type="line"/>
      <point x="242" y="829" type="line"/>
      <point x="225" y="828" type="line"/>
      <point x="209" y="825" type="line"/>
      <point x="194" y="822" type="line"/>
      <point x="179" y="818" type="line"/>
      <point x="166" y="813" type="line"/>
      <point x="153" y="808" type="line"/>
      <point x="141" y="802" type="line"/>
      <point x="130" y="795" type="line"/>
      <point x="120" y="788" type="line"/>
      <point x="110" y="781" type="line"/>
      <point x="102" y="773" type="line"/>
      <point x="95" y="766" type="line" smooth="yes"/>
      <point x="95" y="766"/>
      <point x="94" y="765"/>
      <point x="94" y="764" type="curve" smooth="yes"/>
      <point x="87" y="756" type="line"/>
      <point x="81" y="747" type="line"/>
      <point x="75" y="738" type="line"/>
      <point x="71" y="728" type="line"/>
      <point x="67" y="719" type="line"/>
      <point x="63" y="710" type="line"/>
      <point x="60" y="700" type="line"/>
      <point x="58" y="691" type="line"/>
      <point x="56" y="682" type="line"/>
      <point x="54" y="672" type="line"/>
      <point x="53" y="664" type="line"/>
      <point x="52" y="655" type="line"/>
      <point x="51" y="646" type="line"/>
      <point x="51" y="638" type="line"/>
      <point x="50" y="630" type="line"/>
      <point x="50" y="622" type="line"/>
      <point x="50" y="615" type="line"/>
      <point x="50" y="608" type="line"/>
      <point x="50" y="601" type="line"/>
      <point x="50" y="401" type="line" smooth="yes"/>
      <point x="50" y="384"/>
      <point x="63" y="371"/>
      <point x="80" y="371" type="curve" smooth="yes"/>
      <point x="479" y="371" type="line"/>
      <point x="496" y="371" type="line"/>
      <point x="511" y="370" type="line"/>
      <point x="526" y="368" type="line"/>
      <point x="539" y="366" type="line"/>
      <point x="551" y="364" type="line"/>
      <point x="562" y="361" type="line"/>
      <point x="572" y="358" type="line"/>
      <point x="581" y="354" type="line"/>
      <point x="589" y="350" type="line"/>
      <point x="596" y="346" type="line"/>
      <point x="603" y="341" type="line"/>
      <point x="609" y="337" type="line"/>
      <point x="614" y="332" type="line"/>
      <point x="620" y="326" type="line"/>
      <point x="624" y="321" type="line"/>
      <point x="628" y="316" type="line"/>
      <point x="631" y="310" type="line"/>
      <point x="634" y="304" type="line"/>
      <point x="637" y="298" type="line"/>
      <point x="640" y="291" type="line"/>
      <point x="642" y="285" type="line"/>
      <point x="644" y="278" type="line"/>
      <point x="645" y="271" type="line"/>
      <point x="647" y="264" type="line"/>
      <point x="648" y="257" type="line"/>
      <point x="648" y="250" type="line"/>
      <point x="649" y="243" type="line"/>
      <point x="649" y="235" type="line"/>
      <point x="650" y="228" type="line"/>
      <point x="650" y="221" type="line"/>
      <point x="650" y="214" type="line"/>
      <point x="650" y="208" type="line"/>
      <point x="650" y="202" type="line"/>
      <point x="650" y="185" type="line"/>
      <point x="649" y="170" type="line"/>
      <point x="647" y="155" type="line"/>
      <point x="645" y="142" type="line"/>
      <point x="643" y="130" type="line"/>
      <point x="640" y="119" type="line"/>
      <point x="637" y="109" type="line"/>
      <point x="633" y="100" type="line"/>
      <point x="629" y="92" type="line"/>
      <point x="625" y="85" type="line"/>
      <point x="620" y="78" type="line"/>
      <point x="616" y="72" type="line"/>
      <point x="611" y="67" type="line"/>
      <point x="605" y="61" type="line"/>
      <point x="600" y="57" type="line"/>
      <point x="595" y="53" type="line"/>
      <point x="589" y="50" type="line"/>
      <point x="583" y="47" type="line"/>
      <point x="577" y="44" type="line"/>
      <point x="570" y="41" type="line"/>
      <point x="564" y="39" type="line"/>
      <point x="557" y="37" type="line"/>
      <point x="550" y="36" type="line"/>
      <point x="543" y="34" type="line"/>
      <point x="536" y="33" type="line"/>
      <point x="529" y="33" type="line"/>
      <point x="522" y="32" type="line"/>
      <point x="514" y="32" type="line"/>
      <point x="507" y="31" type="line"/>
      <point x="500" y="31" type="line"/>
      <point x="493" y="31" type="line"/>
      <point x="487" y="31" type="line"/>
      <point x="280" y="31" type="line"/>
      <point x="264" y="31" type="line"/>
      <point x="249" y="32" type="line"/>
      <point x="234" y="34" type="line"/>
      <point x="221" y="36" type="line"/>
      <point x="209" y="38" type="line"/>
      <point x="198" y="41" type="line"/>
      <point x="188" y="44" type="line"/>
      <point x="179" y="48" type="line"/>
      <point x="171" y="52" type="line"/>
      <point x="164" y="56" type="line"/>
      <point x="157" y="61" type="line"/>
      <point x="151" y="65" type="line"/>
      <point x="146" y="70" type="line"/>
      <point x="140" y="76" type="line"/>
      <point x="136" y="81" type="line"/>
      <point x="132" y="86" type="line"/>
      <point x="129" y="92" type="line"/>
      <point x="126" y="98" type="line"/>
      <point x="123" y="104" type="line"/>
      <point x="120" y="111" type="line"/>
      <point x="118" y="117" type="line"/>
      <point x="116" y="124" type="line"/>
      <point x="115" y="131" type="line"/>
      <point x="113" y="138" type="line"/>
      <point x="112" y="145" type="line"/>
      <point x="112" y="152" type="line"/>
      <point x="111" y="159" type="line"/>
      <point x="111" y="167" type="line"/>
      <point x="110" y="174" type="line"/>
      <point x="110" y="181" type="line"/>
      <point x="110" y="188" type="line"/>
      <point x="110" y="194" type="line"/>
      <point x="110" y="201" type="line" smooth="yes"/>
      <point x="110" y="217"/>
      <point x="96" y="231"/>
      <point x="80" y="231" type="curve" smooth="yes"/>
      <point x="64" y="231"/>
      <point x="50" y="217"/>
      <point x="50" y="201" type="curve" smooth="yes"/>
      <point x="50" y="194" type="line"/>
      <point x="50" y="187" type="line"/>
      <point x="50" y="180" type="line"/>
      <point x="50" y="172" type="line"/>
      <point x="51" y="164" type="line"/>
      <point x="51" y="156" type="line"/>
      <point x="52" y="147" type="line"/>
      <point x="53" y="138" type="line"/>
      <point x="54" y="130" type="line"/>
      <point x="56" y="120" type="line"/>
      <point x="58" y="111" type="line"/>
      <point x="60" y="102" type="line"/>
      <point x="63" y="92" type="line"/>
      <point x="67" y="83" type="line"/>
      <point x="71" y="74" type="line"/>
      <point x="75" y="64" type="line"/>
      <point x="81" y="55" type="line"/>
      <point x="87" y="46" type="line"/>
      <point x="94" y="38" type="line" smooth="yes"/>
      <point x="94" y="37"/>
      <point x="95" y="36"/>
      <point x="95" y="36" type="curve" smooth="yes"/>
      <point x="102" y="29" type="line"/>
      <point x="110" y="21" type="line"/>
      <point x="120" y="14" type="line"/>
      <point x="130" y="7" type="line"/>
      <point x="141" y="0" type="line"/>
      <point x="153" y="-6" type="line"/>
      <point x="166" y="-11" type="line"/>
      <point x="179" y="-16" type="line"/>
      <point x="194" y="-20" type="line"/>
      <point x="209" y="-23" type="line"/>
      <point x="225" y="-26" type="line"/>
      <point x="242" y="-27" type="line"/>
      <point x="260" y="-29" type="line"/>
      <point x="279" y="-29" type="line" smooth="yes"/>
      <point x="280" y="-29"/>
      <point x="280" y="-29"/>
    </contour>
  </outline>
</glyph>
<glyph name="six" format="1">
  <advance width="760"/>
  <unicode hex="0036"/>
  <outline>
    <contour>
      <point x="487" y="-29" type="line"/>
      <point x="494" y="-29" type="line"/>
      <point x="501" y="-29" type="line"/>
      <point x="509" y="-29" type="line"/>
      <point x="517" y="-28" type="line"/>
      <point x="526" y="-28" type="line"/>
      <point x="535" y="-27" type="line"/>
      <point x="543" y="-26" type="line"/>
      <point x="553" y="-25" type="line"/>
      <point x="562" y="-23" type="line"/>
      <point x="571" y="-21" type="line"/>
      <point x="581" y="-18" type="line"/>
      <point x="590" y="-15" type="line"/>
      <point x="600" y="-12" type="line"/>
      <point x="609" y="-8" type="line"/>
      <point x="618" y="-3" type="line"/>
      <point x="628" y="3" type="line"/>
      <point x="636" y="9" type="line"/>
      <point x="643" y="15" type="line" smooth="yes"/>
      <point x="644" y="15"/>
      <point x="645" y="16"/>
      <point x="645" y="16" type="curve" smooth="yes"/>
      <point x="653" y="24" type="line"/>
      <point x="661" y="33" type="line"/>
      <point x="669" y="43" type="line"/>
      <point x="676" y="53" type="line"/>
      <point x="682" y="64" type="line"/>
      <point x="688" y="76" type="line"/>
      <point x="693" y="88" type="line"/>
      <point x="697" y="102" type="line"/>
      <point x="701" y="116" type="line"/>
      <point x="704" y="132" type="line"/>
      <point x="707" y="148" type="line"/>
      <point x="709" y="165" type="line"/>
      <point x="710" y="183" type="line"/>
      <point x="710" y="201" type="line"/>
      <point x="710" y="208" type="line"/>
      <point x="710" y="215" type="line"/>
      <point x="710" y="222" type="line"/>
      <point x="710" y="230" type="line"/>
      <point x="709" y="238" type="line"/>
      <point x="709" y="247" type="line"/>
      <point x="708" y="256" type="line"/>
      <point x="707" y="264" type="line"/>
      <point x="706" y="274" type="line"/>
      <point x="704" y="283" type="line"/>
      <point x="702" y="292" type="line"/>
      <point x="699" y="302" type="line"/>
      <point x="696" y="311" type="line"/>
      <point x="693" y="321" type="line"/>
      <point x="689" y="330" type="line"/>
      <point x="684" y="339" type="line"/>
      <point x="678" y="349" type="line"/>
      <point x="672" y="357" type="line"/>
      <point x="666" y="364" type="line" smooth="yes"/>
      <point x="666" y="365"/>
      <point x="665" y="366"/>
      <point x="665" y="366" type="curve" smooth="yes"/>
      <point x="657" y="374" type="line"/>
      <point x="648" y="382" type="line"/>
      <point x="638" y="390" type="line"/>
      <point x="628" y="397" type="line"/>
      <point x="617" y="403" type="line"/>
      <point x="605" y="409" type="line"/>
      <point x="593" y="414" type="line"/>
      <point x="579" y="418" type="line"/>
      <point x="565" y="422" type="line"/>
      <point x="549" y="425" type="line"/>
      <point x="533" y="428" type="line"/>
      <point x="516" y="430" type="line"/>
      <point x="498" y="431" type="line"/>
      <point x="481" y="431" type="line" smooth="yes"/>
      <point x="480" y="431"/>
      <point x="480" y="431"/>
      <point x="480" y="431" type="curve" smooth="yes"/>
      <point x="280" y="431" type="line"/>
      <point x="264" y="431" type="line"/>
      <point x="249" y="432" type="line"/>
      <point x="234" y="434" type="line"/>
      <point x="221" y="436" type="line"/>
      <point x="209" y="438" type="line"/>
      <point x="198" y="441" type="line"/>
      <point x="188" y="444" type="line"/>
      <point x="179" y="448" type="line"/>
      <point x="171" y="452" type="line"/>
      <point x="164" y="456" type="line"/>
      <point x="157" y="461" type="line"/>
      <point x="151" y="465" type="line"/>
      <point x="146" y="470" type="line"/>
      <point x="140" y="476" type="line"/>
      <point x="136" y="481" type="line"/>
      <point x="132" y="486" type="line"/>
      <point x="129" y="492" type="line"/>
      <point x="126" y="498" type="line"/>
      <point x="123" y="504" type="line"/>
      <point x="120" y="511" type="line"/>
      <point x="118" y="517" type="line"/>
      <point x="116" y="524" type="line"/>
      <point x="115" y="531" type="line"/>
      <point x="113" y="538" type="line"/>
      <point x="112" y="545" type="line"/>
      <point x="112" y="552" type="line"/>
      <point x="111" y="559" type="line"/>
      <point x="111" y="567" type="line"/>
      <point x="110" y="574" type="line"/>
      <point x="110" y="581" type="line"/>
      <point x="110" y="588" type="line"/>
      <point x="110" y="594" type="line"/>
      <point x="110" y="601" type="line" smooth="yes"/>
      <point x="110" y="601" type="line"/>
      <point x="110" y="608" type="line"/>
      <point x="110" y="614" type="line"/>
      <point x="110" y="621" type="line"/>
      <point x="110" y="628" type="line"/>
      <point x="111" y="635" type="line"/>
      <point x="111" y="643" type="line"/>
      <point x="112" y="650" type="line"/>
      <point x="112" y="657" type="line"/>
      <point x="113" y="664" type="line"/>
      <point x="115" y="671" type="line"/>
      <point x="116" y="678" type="line"/>
      <point x="118" y="685" type="line"/>
      <point x="120" y="691" type="line"/>
      <point x="123" y="698" type="line"/>
      <point x="126" y="704" type="line"/>
      <point x="129" y="710" type="line"/>
      <point x="132" y="716" type="line"/>
      <point x="136" y="721" type="line"/>
      <point x="140" y="726" type="line"/>
      <point x="146" y="732" type="line"/>
      <point x="151" y="737" type="line"/>
      <point x="157" y="741" type="line"/>
      <point x="164" y="746" type="line"/>
      <point x="171" y="750" type="line"/>
      <point x="179" y="754" type="line"/>
      <point x="188" y="758" type="line"/>
      <point x="198" y="761" type="line"/>
      <point x="209" y="764" type="line"/>
      <point x="221" y="766" type="line"/>
      <point x="234" y="768" type="line"/>
      <point x="249" y="770" type="line"/>
      <point x="264" y="771" type="line"/>
      <point x="281" y="771" type="line"/>
      <point x="480" y="771" type="line"/>
      <point x="480" y="771" type="line"/>
      <point x="487" y="771" type="line"/>
      <point x="493" y="771" type="line"/>
      <point x="500" y="771" type="line"/>
      <point x="507" y="771" type="line"/>
      <point x="514" y="770" type="line"/>
      <point x="522" y="770" type="line"/>
      <point x="529" y="769" type="line"/>
      <point x="536" y="769" type="line"/>
      <point x="543" y="768" type="line"/>
      <point x="550" y="766" type="line"/>
      <point x="557" y="765" type="line"/>
      <point x="564" y="763" type="line"/>
      <point x="570" y="761" type="line"/>
      <point x="577" y="758" type="line"/>
      <point x="583" y="755" type="line"/>
      <point x="589" y="752" type="line"/>
      <point x="595" y="749" type="line"/>
      <point x="600" y="745" type="line"/>
      <point x="605" y="741" type="line"/>
      <point x="611" y="735" type="line"/>
      <point x="616" y="730" type="line"/>
      <point x="620" y="724" type="line"/>
      <point x="625" y="717" type="line"/>
      <point x="629" y="710" type="line"/>
      <point x="633" y="702" type="line"/>
      <point x="637" y="693" type="line"/>
      <point x="640" y="683" type="line"/>
      <point x="643" y="672" type="line"/>
      <point x="645" y="660" type="line"/>
      <point x="647" y="647" type="line"/>
      <point x="649" y="632" type="line"/>
      <point x="650" y="617" type="line"/>
      <point x="650" y="600" type="line" smooth="yes"/>
      <point x="650" y="584"/>
      <point x="664" y="571"/>
      <point x="681" y="571" type="curve" smooth="yes"/>
      <point x="697" y="571"/>
      <point x="710" y="585"/>
      <point x="710" y="602" type="curve" smooth="yes"/>
      <point x="710" y="621" type="line"/>
      <point x="708" y="639" type="line"/>
      <point x="707" y="656" type="line"/>
      <point x="704" y="672" type="line"/>
      <point x="701" y="687" type="line"/>
      <point x="697" y="702" type="line"/>
      <point x="692" y="715" type="line"/>
      <point x="687" y="728" type="line"/>
      <point x="681" y="740" type="line"/>
      <point x="674" y="751" type="line"/>
      <point x="667" y="761" type="line"/>
      <point x="660" y="771" type="line"/>
      <point x="652" y="779" type="line"/>
      <point x="645" y="786" type="line" smooth="yes"/>
      <point x="645" y="786"/>
      <point x="644" y="787"/>
      <point x="643" y="787" type="curve" smooth="yes"/>
      <point x="635" y="794" type="line"/>
      <point x="626" y="800" type="line"/>
      <point x="617" y="806" type="line"/>
      <point x="607" y="810" type="line"/>
      <point x="598" y="814" type="line"/>
      <point x="589" y="818" type="line"/>
      <point x="579" y="821" type="line"/>
      <point x="570" y="823" type="line"/>
      <point x="561" y="825" type="line"/>
      <point x="551" y="827" type="line"/>
      <point x="543" y="828" type="line"/>
      <point x="534" y="829" type="line"/>
      <point x="525" y="830" type="line"/>
      <point x="517" y="830" type="line"/>
      <point x="509" y="831" type="line"/>
      <point x="501" y="831" type="line"/>
      <point x="494" y="831" type="line"/>
      <point x="487" y="831" type="line"/>
      <point x="480" y="831" type="line" smooth="yes"/>
      <point x="480" y="831" type="line" smooth="yes"/>
      <point x="279" y="831" type="line"/>
      <point x="260" y="831" type="line"/>
      <point x="242" y="829" type="line"/>
      <point x="225" y="828" type="line"/>
      <point x="209" y="825" type="line"/>
      <point x="194" y="822" type="line"/>
      <point x="179" y="818" type="line"/>
      <point x="166" y="813" type="line"/>
      <point x="153" y="808" type="line"/>
      <point x="141" y="802" type="line"/>
      <point x="130" y="795" type="line"/>
      <point x="120" y="788" type="line"/>
      <point x="110" y="781" type="line"/>
      <point x="102" y="773" type="line"/>
      <point x="95" y="766" type="line" smooth="yes"/>
      <point x="95" y="766"/>
      <point x="94" y="765"/>
      <point x="94" y="764" type="curve" smooth="yes"/>
      <point x="87" y="756" type="line"/>
      <point x="81" y="747" type="line"/>
      <point x="75" y="738" type="line"/>
      <point x="71" y="728" type="line"/>
      <point x="67" y="719" type="line"/>
      <point x="63" y="710" type="line"/>
      <point x="60" y="700" type="line"/>
      <point x="58" y="691" type="line"/>
      <point x="56" y="682" type="line"/>
      <point x="54" y="672" type="line"/>
      <point x="53" y="664" type="line"/>
      <point x="52" y="655" type="line"/>
      <point x="51" y="646" type="line"/>
      <point x="51" y="638" type="line"/>
      <point x="50" y="630" type="line"/>
      <point x="50" y="622" type="line"/>
      <point x="50" y="615" type="line"/>
      <point x="50" y="608" type="line"/>
      <point x="50" y="601" type="line"/>
      <point x="50" y="201" type="line"/>
      <point x="50" y="194" type="line"/>
      <point x="50" y="187" type="line"/>
      <point x="50" y="180" type="line"/>
      <point x="50" y="172" type="line"/>
      <point x="51" y="164" type="line"/>
      <point x="51" y="155" type="line"/>
      <point x="52" y="146" type="line"/>
      <point x="53" y="138" type="line"/>
      <point x="54" y="128" type="line"/>
      <point x="56" y="119" type="line"/>
      <point x="58" y="110" type="line"/>
      <point x="61" y="100" type="line"/>
      <point x="64" y="91" type="line"/>
      <point x="67" y="81" type="line"/>
      <point x="71" y="72" type="line"/>
      <point x="76" y="63" type="line"/>
      <point x="82" y="53" type="line"/>
      <point x="88" y="45" type="line"/>
      <point x="94" y="38" type="line" smooth="yes"/>
      <point x="94" y="37"/>
      <point x="95" y="36"/>
      <point x="95" y="36" type="curve" smooth="yes"/>
      <point x="103" y="28" type="line"/>
      <point x="112" y="20" type="line"/>
      <point x="122" y="12" type="line"/>
      <point x="132" y="5" type="line"/>
      <point x="143" y="-1" type="line"/>
      <point x="155" y="-7" type="line"/>
      <point x="167" y="-12" type="line"/>
      <point x="181" y="-16" type="line"/>
      <point x="195" y="-20" type="line"/>
      <point x="211" y="-23" type="line"/>
      <point x="227" y="-26" type="line"/>
      <point x="244" y="-28" type="line"/>
      <point x="262" y="-29" type="line"/>
      <point x="280" y="-29" type="line"/>
    </contour>
    <contour>
      <point x="280" y="31" type="line"/>
      <point x="263" y="31" type="line"/>
      <point x="247" y="32" type="line"/>
      <point x="233" y="34" type="line"/>
      <point x="220" y="36" type="line"/>
      <point x="208" y="39" type="line"/>
      <point x="197" y="42" type="line"/>
      <point x="187" y="45" type="line"/>
      <point x="177" y="49" type="line"/>
      <point x="169" y="53" type="line"/>
      <point x="162" y="57" type="line"/>
      <point x="155" y="62" type="line"/>
      <point x="149" y="67" type="line"/>
      <point x="144" y="72" type="line"/>
      <point x="140" y="76" type="line"/>
      <point x="135" y="82" type="line"/>
      <point x="131" y="88" type="line"/>
      <point x="128" y="94" type="line"/>
      <point x="125" y="100" type="line"/>
      <point x="122" y="106" type="line"/>
      <point x="120" y="112" type="line"/>
      <point x="118" y="119" type="line"/>
      <point x="116" y="125" type="line"/>
      <point x="114" y="132" type="line"/>
      <point x="113" y="139" type="line"/>
      <point x="112" y="146" type="line"/>
      <point x="112" y="153" type="line"/>
      <point x="111" y="160" type="line"/>
      <point x="111" y="167" type="line"/>
      <point x="110" y="174" type="line"/>
      <point x="110" y="181" type="line"/>
      <point x="110" y="188" type="line"/>
      <point x="110" y="194" type="line"/>
      <point x="110" y="201" type="line"/>
      <point x="110" y="421" type="line"/>
      <point x="110" y="421" type="line"/>
      <point x="120" y="414" type="line"/>
      <point x="130" y="407" type="line"/>
      <point x="141" y="400" type="line"/>
      <point x="153" y="394" type="line"/>
      <point x="166" y="389" type="line"/>
      <point x="179" y="384" type="line"/>
      <point x="194" y="380" type="line"/>
      <point x="209" y="377" type="line"/>
      <point x="225" y="374" type="line"/>
      <point x="242" y="373" type="line"/>
      <point x="260" y="371" type="line"/>
      <point x="279" y="371" type="line" smooth="yes"/>
      <point x="280" y="371"/>
      <point x="280" y="371"/>
      <point x="280" y="371" type="curve" smooth="yes"/>
      <point x="480" y="371" type="line"/>
      <point x="497" y="371" type="line"/>
      <point x="513" y="370" type="line"/>
      <point x="527" y="368" type="line"/>
      <point x="540" y="366" type="line"/>
      <point x="552" y="363" type="line"/>
      <point x="563" y="360" type="line"/>
      <point x="573" y="357" type="line"/>
      <point x="583" y="353" type="line"/>
      <point x="591" y="349" type="line"/>
      <point x="598" y="345" type="line"/>
      <point x="605" y="340" type="line"/>
      <point x="611" y="335" type="line"/>
      <point x="616" y="330" type="line"/>
      <point x="620" y="326" type="line"/>
      <point x="625" y="320" type="line"/>
      <point x="629" y="314" type="line"/>
      <point x="632" y="308" type="line"/>
      <point x="635" y="302" type="line"/>
      <point x="638" y="296" type="line"/>
      <point x="640" y="290" type="line"/>
      <point x="642" y="283" type="line"/>
      <point x="644" y="277" type="line"/>
      <point x="646" y="270" type="line"/>
      <point x="647" y="263" type="line"/>
      <point x="648" y="256" type="line"/>
      <point x="648" y="249" type="line"/>
      <point x="649" y="242" type="line"/>
      <point x="649" y="235" type="line"/>
      <point x="650" y="228" type="line"/>
      <point x="650" y="221" type="line"/>
      <point x="650" y="214" type="line"/>
      <point x="650" y="208" type="line"/>
      <point x="650" y="201" type="line"/>
      <point x="650" y="184" type="line"/>
      <point x="649" y="168" type="line"/>
      <point x="647" y="154" type="line"/>
      <point x="645" y="141" type="line"/>
      <point x="642" y="129" type="line"/>
      <point x="639" y="118" type="line"/>
      <point x="636" y="108" type="line"/>
      <point x="632" y="98" type="line"/>
      <point x="628" y="90" type="line"/>
      <point x="624" y="83" type="line"/>
      <point x="619" y="76" type="line"/>
      <point x="614" y="70" type="line"/>
      <point x="609" y="65" type="line"/>
      <point x="605" y="61" type="line"/>
      <point x="599" y="56" type="line"/>
      <point x="593" y="52" type="line"/>
      <point x="587" y="49" type="line"/>
      <point x="581" y="46" type="line"/>
      <point x="575" y="43" type="line"/>
      <point x="569" y="41" type="line"/>
      <point x="562" y="39" type="line"/>
      <point x="556" y="37" type="line"/>
      <point x="549" y="35" type="line"/>
      <point x="542" y="34" type="line"/>
      <point x="535" y="33" type="line"/>
      <point x="528" y="33" type="line"/>
      <point x="521" y="32" type="line"/>
      <point x="514" y="32" type="line"/>
      <point x="507" y="31" type="line"/>
      <point x="500" y="31" type="line"/>
      <point x="493" y="31" type="line"/>
      <point x="487" y="31" type="line"/>
    </contour>
  </outline>
</glyph>
<glyph name="seven" format="1">
  <advance width="759"/>
  <unicode hex="0037"/>
  <outline>
    <contour>
      <point x="305" y="-20" type="curve" smooth="yes"/>
      <point x="698" y="572" type="line"/>
      <point x="704" y="580" type="line" smooth="yes"/>
      <point x="707" y="585"/>
      <point x="709" y="592"/>
      <point x="709" y="597" type="curve" smooth="yes"/>
      <point x="709" y="604" type="line"/>
      <point x="709" y="611" type="line"/>
      <point x="709" y="618" type="line"/>
      <point x="709" y="626" type="line"/>
      <point x="708" y="634" type="line"/>
      <point x="708" y="642" type="line"/>
      <point x="707" y="651" type="line"/>
      <point x="706" y="659" type="line"/>
      <point x="705" y="668" type="line"/>
      <point x="704" y="678" type="line"/>
      <point x="702" y="687" type="line"/>
      <point x="699" y="696" type="line"/>
      <point x="696" y="705" type="line"/>
      <point x="693" y="715" type="line"/>
      <point x="689" y="724" type="line"/>
      <point x="684" y="734" type="line"/>
      <point x="679" y="743" type="line"/>
      <point x="672" y="752" type="line"/>
      <point x="665" y="760" type="line" smooth="yes"/>
      <point x="665" y="761"/>
      <point x="664" y="762"/>
      <point x="664" y="762" type="curve" smooth="yes"/>
      <point x="658" y="769" type="line"/>
      <point x="649" y="777" type="line"/>
      <point x="640" y="784" type="line"/>
      <point x="629" y="791" type="line"/>
      <point x="618" y="798" type="line"/>
      <point x="606" y="804" type="line"/>
      <point x="594" y="809" type="line"/>
      <point x="580" y="814" type="line"/>
      <point x="566" y="818" type="line"/>
      <point x="550" y="821" type="line"/>
      <point x="534" y="824" type="line"/>
      <point x="517" y="825" type="line"/>
      <point x="499" y="827" type="line"/>
      <point x="480" y="827" type="line"/>
      <point x="90" y="827" type="line"/>
      <point x="80" y="827" type="line" smooth="yes"/>
      <point x="64" y="827"/>
      <point x="50" y="813"/>
      <point x="50" y="797" type="curve" smooth="yes"/>
      <point x="50" y="781"/>
      <point x="64" y="767"/>
      <point x="80" y="767" type="curve" smooth="yes"/>
      <point x="478" y="767" type="line"/>
      <point x="495" y="767" type="line"/>
      <point x="511" y="766" type="line"/>
      <point x="525" y="764" type="line"/>
      <point x="538" y="762" type="line"/>
      <point x="550" y="760" type="line"/>
      <point x="561" y="757" type="line"/>
      <point x="571" y="754" type="line"/>
      <point x="580" y="750" type="line"/>
      <point x="588" y="746" type="line"/>
      <point x="596" y="742" type="line"/>
      <point x="602" y="737" type="line"/>
      <point x="608" y="733" type="line"/>
      <point x="614" y="728" type="line"/>
      <point x="620" y="722" type="line"/>
      <point x="623" y="717" type="line"/>
      <point x="627" y="712" type="line"/>
      <point x="631" y="706" type="line"/>
      <point x="634" y="700" type="line"/>
      <point x="637" y="694" type="line"/>
      <point x="639" y="687" type="line"/>
      <point x="641" y="681" type="line"/>
      <point x="643" y="674" type="line"/>
      <point x="644" y="667" type="line"/>
      <point x="646" y="660" type="line"/>
      <point x="647" y="653" type="line"/>
      <point x="648" y="646" type="line"/>
      <point x="648" y="639" type="line"/>
      <point x="649" y="632" type="line"/>
      <point x="649" y="624" type="line"/>
      <point x="649" y="617" type="line"/>
      <point x="649" y="610" type="line"/>
      <point x="649" y="606" type="line"/>
      <point x="261" y="22" type="line"/>
      <point x="255" y="14" type="line" smooth="yes"/>
      <point x="246" y="0"/>
      <point x="250" y="-19"/>
      <point x="263" y="-28" type="curve" smooth="yes"/>
      <point x="277" y="-37"/>
      <point x="296" y="-33"/>
    </contour>
  </outline>
</glyph>
<glyph name="eight" format="1">
  <advance width="760"/>
  <unicode hex="0038"/>
  <outline>
    <contour>
      <point x="280" y="-30" type="line"/>
      <point x="487" y="-30" type="line"/>
      <point x="494" y="-30" type="line"/>
      <point x="501" y="-30" type="line"/>
      <point x="509" y="-30" type="line"/>
      <point x="517" y="-29" type="line"/>
      <point x="526" y="-29" type="line"/>
      <point x="535" y="-28" type="line"/>
      <point x="543" y="-27" type="line"/>
      <point x="553" y="-26" type="line"/>
      <point x="562" y="-24" type="line"/>
      <point x="571" y="-22" type="line"/>
      <point x="581" y="-19" type="line"/>
      <point x="590" y="-16" type="line"/>
      <point x="600" y="-13" type="line"/>
      <point x="609" y="-9" type="line"/>
      <point x="618" y="-4" type="line"/>
      <point x="628" y="2" type="line"/>
      <point x="636" y="8" type="line"/>
      <point x="643" y="14" type="line" smooth="yes"/>
      <point x="644" y="14"/>
      <point x="645" y="15"/>
      <point x="645" y="15" type="curve" smooth="yes"/>
      <point x="653" y="23" type="line"/>
      <point x="661" y="32" type="line"/>
      <point x="669" y="42" type="line"/>
      <point x="676" y="52" type="line"/>
      <point x="682" y="63" type="line"/>
      <point x="688" y="75" type="line"/>
      <point x="693" y="87" type="line"/>
      <point x="697" y="101" type="line"/>
      <point x="701" y="115" type="line"/>
      <point x="704" y="131" type="line"/>
      <point x="707" y="147" type="line"/>
      <point x="709" y="164" type="line"/>
      <point x="710" y="182" type="line"/>
      <point x="710" y="200" type="line"/>
      <point x="710" y="207" type="line"/>
      <point x="710" y="214" type="line"/>
      <point x="710" y="221" type="line"/>
      <point x="710" y="229" type="line"/>
      <point x="709" y="237" type="line"/>
      <point x="709" y="246" type="line"/>
      <point x="708" y="255" type="line"/>
      <point x="707" y="263" type="line"/>
      <point x="706" y="273" type="line"/>
      <point x="704" y="282" type="line"/>
      <point x="702" y="291" type="line"/>
      <point x="699" y="301" type="line"/>
      <point x="696" y="310" type="line"/>
      <point x="693" y="320" type="line"/>
      <point x="689" y="329" type="line"/>
      <point x="684" y="338" type="line"/>
      <point x="678" y="348" type="line"/>
      <point x="672" y="356" type="line"/>
      <point x="666" y="363" type="line" smooth="yes"/>
      <point x="666" y="364"/>
      <point x="665" y="365"/>
      <point x="665" y="365" type="curve" smooth="yes"/>
      <point x="657" y="373" type="line"/>
      <point x="648" y="381" type="line"/>
      <point x="638" y="389" type="line"/>
      <point x="628" y="396" type="line"/>
      <point x="622" y="399" type="line"/>
      <point x="626" y="401" type="line"/>
      <point x="635" y="407" type="line"/>
      <point x="643" y="414" type="line" smooth="yes"/>
      <point x="644" y="414"/>
      <point x="645" y="415"/>
      <point x="645" y="415" type="curve" smooth="yes"/>
      <point x="652" y="422" type="line"/>
      <point x="660" y="430" type="line"/>
      <point x="667" y="440" type="line"/>
      <point x="674" y="450" type="line"/>
      <point x="681" y="461" type="line"/>
      <point x="687" y="473" type="line"/>
      <point x="692" y="486" type="line"/>
      <point x="697" y="499" type="line"/>
      <point x="701" y="514" type="line"/>
      <point x="704" y="529" type="line"/>
      <point x="707" y="545" type="line"/>
      <point x="708" y="562" type="line"/>
      <point x="710" y="580" type="line"/>
      <point x="710" y="599" type="line"/>
      <point x="710" y="607" type="line"/>
      <point x="710" y="614" type="line"/>
      <point x="710" y="621" type="line"/>
      <point x="710" y="629" type="line"/>
      <point x="709" y="637" type="line"/>
      <point x="709" y="645" type="line"/>
      <point x="708" y="654" type="line"/>
      <point x="707" y="663" type="line"/>
      <point x="706" y="671" type="line"/>
      <point x="704" y="681" type="line"/>
      <point x="702" y="690" type="line"/>
      <point x="700" y="699" type="line"/>
      <point x="697" y="709" type="line"/>
      <point x="693" y="718" type="line"/>
      <point x="689" y="727" type="line"/>
      <point x="685" y="737" type="line"/>
      <point x="679" y="746" type="line"/>
      <point x="673" y="755" type="line"/>
      <point x="666" y="763" type="line" smooth="yes"/>
      <point x="666" y="764"/>
      <point x="665" y="765"/>
      <point x="665" y="765" type="curve" smooth="yes"/>
      <point x="658" y="772" type="line"/>
      <point x="650" y="780" type="line"/>
      <point x="640" y="787" type="line"/>
      <point x="630" y="794" type="line"/>
      <point x="619" y="801" type="line"/>
      <point x="607" y="807" type="line"/>
      <point x="594" y="812" type="line"/>
      <point x="581" y="817" type="line"/>
      <point x="566" y="821" type="line"/>
      <point x="551" y="824" type="line"/>
      <point x="535" y="827" type="line"/>
      <point x="518" y="828" type="line"/>
      <point x="500" y="830" type="line"/>
      <point x="481" y="830" type="line"/>
      <point x="273" y="830" type="line"/>
      <point x="266" y="830" type="line"/>
      <point x="259" y="830" type="line"/>
      <point x="251" y="830" type="line"/>
      <point x="243" y="829" type="line"/>
      <point x="235" y="829" type="line"/>
      <point x="226" y="828" type="line"/>
      <point x="217" y="827" type="line"/>
      <point x="209" y="826" type="line"/>
      <point x="199" y="824" type="line"/>
      <point x="190" y="822" type="line"/>
      <point x="181" y="820" type="line"/>
      <point x="171" y="817" type="line"/>
      <point x="162" y="813" type="line"/>
      <point x="153" y="809" type="line"/>
      <point x="143" y="805" type="line"/>
      <point x="134" y="799" type="line"/>
      <point x="125" y="793" type="line"/>
      <point x="117" y="786" type="line" smooth="yes"/>
      <point x="116" y="786"/>
      <point x="115" y="785"/>
      <point x="115" y="785" type="curve" smooth="yes"/>
      <point x="108" y="778" type="line"/>
      <point x="100" y="770" type="line"/>
      <point x="93" y="760" type="line"/>
      <point x="86" y="750" type="line"/>
      <point x="79" y="739" type="line"/>
      <point x="73" y="727" type="line"/>
      <point x="68" y="714" type="line"/>
      <point x="63" y="701" type="line"/>
      <point x="59" y="686" type="line"/>
      <point x="56" y="671" type="line"/>
      <point x="53" y="655" type="line"/>
      <point x="52" y="638" type="line"/>
      <point x="50" y="620" type="line"/>
      <point x="50" y="601" type="line"/>
      <point x="50" y="593" type="line"/>
      <point x="50" y="586" type="line"/>
      <point x="50" y="579" type="line"/>
      <point x="50" y="571" type="line"/>
      <point x="51" y="563" type="line"/>
      <point x="51" y="555" type="line"/>
      <point x="52" y="546" type="line"/>
      <point x="53" y="537" type="line"/>
      <point x="54" y="529" type="line"/>
      <point x="56" y="519" type="line"/>
      <point x="58" y="510" type="line"/>
      <point x="60" y="501" type="line"/>
      <point x="63" y="491" type="line"/>
      <point x="67" y="482" type="line"/>
      <point x="71" y="473" type="line"/>
      <point x="75" y="463" type="line"/>
      <point x="81" y="454" type="line"/>
      <point x="87" y="445" type="line"/>
      <point x="94" y="437" type="line" smooth="yes"/>
      <point x="94" y="436"/>
      <point x="95" y="435"/>
      <point x="95" y="435" type="curve" smooth="yes"/>
      <point x="102" y="428" type="line"/>
      <point x="110" y="420" type="line"/>
      <point x="120" y="413" type="line"/>
      <point x="130" y="406" type="line"/>
      <point x="138" y="401" type="line"/>
      <point x="132" y="398" type="line"/>
      <point x="124" y="392" type="line"/>
      <point x="117" y="386" type="line" smooth="yes"/>
      <point x="116" y="386"/>
      <point x="115" y="385"/>
      <point x="115" y="385" type="curve" smooth="yes"/>
      <point x="107" y="377" type="line"/>
      <point x="99" y="368" type="line"/>
      <point x="91" y="358" type="line"/>
      <point x="84" y="348" type="line"/>
      <point x="78" y="337" type="line"/>
      <point x="72" y="325" type="line"/>
      <point x="67" y="313" type="line"/>
      <point x="63" y="299" type="line"/>
      <point x="59" y="285" type="line"/>
      <point x="56" y="269" type="line"/>
      <point x="53" y="253" type="line"/>
      <point x="51" y="236" type="line"/>
      <point x="50" y="218" type="line"/>
      <point x="50" y="200" type="line"/>
      <point x="50" y="193" type="line"/>
      <point x="50" y="186" type="line"/>
      <point x="50" y="179" type="line"/>
      <point x="50" y="171" type="line"/>
      <point x="51" y="163" type="line"/>
      <point x="51" y="154" type="line"/>
      <point x="52" y="145" type="line"/>
      <point x="53" y="137" type="line"/>
      <point x="54" y="127" type="line"/>
      <point x="56" y="118" type="line"/>
      <point x="58" y="109" type="line"/>
      <point x="61" y="99" type="line"/>
      <point x="64" y="90" type="line"/>
      <point x="67" y="80" type="line"/>
      <point x="71" y="71" type="line"/>
      <point x="76" y="62" type="line"/>
      <point x="82" y="52" type="line"/>
      <point x="88" y="44" type="line"/>
      <point x="94" y="37" type="line" smooth="yes"/>
      <point x="94" y="36"/>
      <point x="95" y="35"/>
      <point x="95" y="35" type="curve" smooth="yes"/>
      <point x="103" y="27" type="line"/>
      <point x="112" y="19" type="line"/>
      <point x="122" y="11" type="line"/>
      <point x="132" y="4" type="line"/>
      <point x="143" y="-2" type="line"/>
      <point x="155" y="-8" type="line"/>
      <point x="167" y="-13" type="line"/>
      <point x="181" y="-17" type="line"/>
      <point x="195" y="-21" type="line"/>
      <point x="211" y="-24" type="line"/>
      <point x="227" y="-27" type="line"/>
      <point x="244" y="-29" type="line"/>
      <point x="262" y="-30" type="line"/>
    </contour>
    <contour>
      <point x="480" y="430" type="line" smooth="yes"/>
      <point x="280" y="430" type="line"/>
      <point x="264" y="430" type="line"/>
      <point x="249" y="431" type="line"/>
      <point x="234" y="433" type="line"/>
      <point x="221" y="435" type="line"/>
      <point x="209" y="437" type="line"/>
      <point x="198" y="440" type="line"/>
      <point x="188" y="443" type="line"/>
      <point x="179" y="447" type="line"/>
      <point x="171" y="451" type="line"/>
      <point x="164" y="455" type="line"/>
      <point x="157" y="460" type="line"/>
      <point x="151" y="464" type="line"/>
      <point x="146" y="469" type="line"/>
      <point x="140" y="475" type="line"/>
      <point x="136" y="480" type="line"/>
      <point x="132" y="485" type="line"/>
      <point x="129" y="491" type="line"/>
      <point x="126" y="497" type="line"/>
      <point x="123" y="503" type="line"/>
      <point x="120" y="510" type="line"/>
      <point x="118" y="516" type="line"/>
      <point x="116" y="523" type="line"/>
      <point x="115" y="530" type="line"/>
      <point x="113" y="537" type="line"/>
      <point x="112" y="544" type="line"/>
      <point x="112" y="551" type="line"/>
      <point x="111" y="558" type="line"/>
      <point x="111" y="566" type="line"/>
      <point x="110" y="573" type="line"/>
      <point x="110" y="580" type="line"/>
      <point x="110" y="587" type="line"/>
      <point x="110" y="593" type="line"/>
      <point x="110" y="599" type="line"/>
      <point x="110" y="616" type="line"/>
      <point x="111" y="631" type="line"/>
      <point x="113" y="646" type="line"/>
      <point x="115" y="659" type="line"/>
      <point x="117" y="671" type="line"/>
      <point x="120" y="682" type="line"/>
      <point x="123" y="692" type="line"/>
      <point x="127" y="701" type="line"/>
      <point x="131" y="709" type="line"/>
      <point x="135" y="716" type="line"/>
      <point x="140" y="723" type="line"/>
      <point x="144" y="729" type="line"/>
      <point x="149" y="734" type="line"/>
      <point x="155" y="740" type="line"/>
      <point x="160" y="744" type="line"/>
      <point x="165" y="748" type="line"/>
      <point x="171" y="751" type="line"/>
      <point x="177" y="754" type="line"/>
      <point x="183" y="757" type="line"/>
      <point x="190" y="760" type="line"/>
      <point x="196" y="762" type="line"/>
      <point x="203" y="764" type="line"/>
      <point x="210" y="765" type="line"/>
      <point x="217" y="767" type="line"/>
      <point x="224" y="768" type="line"/>
      <point x="231" y="768" type="line"/>
      <point x="238" y="769" type="line"/>
      <point x="246" y="769" type="line"/>
      <point x="253" y="770" type="line"/>
      <point x="260" y="770" type="line"/>
      <point x="267" y="770" type="line"/>
      <point x="273" y="770" type="line"/>
      <point x="479" y="770" type="line"/>
      <point x="496" y="770" type="line"/>
      <point x="511" y="769" type="line"/>
      <point x="526" y="767" type="line"/>
      <point x="539" y="765" type="line"/>
      <point x="551" y="763" type="line"/>
      <point x="562" y="760" type="line"/>
      <point x="572" y="757" type="line"/>
      <point x="581" y="753" type="line"/>
      <point x="589" y="749" type="line"/>
      <point x="596" y="745" type="line"/>
      <point x="603" y="740" type="line"/>
      <point x="609" y="736" type="line"/>
      <point x="614" y="731" type="line"/>
      <point x="620" y="725" type="line"/>
      <point x="624" y="720" type="line"/>
      <point x="628" y="715" type="line"/>
      <point x="631" y="709" type="line"/>
      <point x="634" y="703" type="line"/>
      <point x="637" y="697" type="line"/>
      <point x="640" y="690" type="line"/>
      <point x="642" y="684" type="line"/>
      <point x="644" y="677" type="line"/>
      <point x="645" y="670" type="line"/>
      <point x="647" y="663" type="line"/>
      <point x="648" y="656" type="line"/>
      <point x="648" y="649" type="line"/>
      <point x="649" y="642" type="line"/>
      <point x="649" y="634" type="line"/>
      <point x="650" y="627" type="line"/>
      <point x="650" y="620" type="line"/>
      <point x="650" y="613" type="line"/>
      <point x="650" y="607" type="line"/>
      <point x="650" y="601" type="line"/>
      <point x="650" y="584" type="line"/>
      <point x="649" y="569" type="line"/>
      <point x="647" y="554" type="line"/>
      <point x="645" y="541" type="line"/>
      <point x="643" y="529" type="line"/>
      <point x="640" y="518" type="line"/>
      <point x="637" y="508" type="line"/>
      <point x="633" y="499" type="line"/>
      <point x="629" y="491" type="line"/>
      <point x="625" y="484" type="line"/>
      <point x="620" y="477" type="line"/>
      <point x="616" y="471" type="line"/>
      <point x="611" y="466" type="line"/>
      <point x="605" y="460" type="line"/>
      <point x="600" y="456" type="line"/>
      <point x="595" y="452" type="line"/>
      <point x="589" y="449" type="line"/>
      <point x="583" y="446" type="line"/>
      <point x="577" y="443" type="line"/>
      <point x="570" y="440" type="line"/>
      <point x="564" y="438" type="line"/>
      <point x="557" y="436" type="line"/>
      <point x="550" y="435" type="line"/>
      <point x="543" y="433" type="line"/>
      <point x="536" y="432" type="line"/>
      <point x="529" y="432" type="line"/>
      <point x="522" y="431" type="line"/>
      <point x="514" y="431" type="line"/>
      <point x="507" y="430" type="line"/>
      <point x="500" y="430" type="line"/>
      <point x="493" y="430" type="line"/>
      <point x="487" y="430" type="line"/>
    </contour>
    <contour>
      <point x="487" y="30" type="line"/>
      <point x="280" y="30" type="line"/>
      <point x="263" y="30" type="line"/>
      <point x="247" y="31" type="line"/>
      <point x="233" y="33" type="line"/>
      <point x="220" y="35" type="line"/>
      <point x="208" y="38" type="line"/>
      <point x="197" y="41" type="line"/>
      <point x="187" y="44" type="line"/>
      <point x="177" y="48" type="line"/>
      <point x="169" y="52" type="line"/>
      <point x="162" y="56" type="line"/>
      <point x="155" y="61" type="line"/>
      <point x="149" y="66" type="line"/>
      <point x="144" y="71" type="line"/>
      <point x="140" y="75" type="line"/>
      <point x="135" y="81" type="line"/>
      <point x="131" y="87" type="line"/>
      <point x="128" y="93" type="line"/>
      <point x="125" y="99" type="line"/>
      <point x="122" y="105" type="line"/>
      <point x="120" y="111" type="line"/>
      <point x="118" y="118" type="line"/>
      <point x="116" y="124" type="line"/>
      <point x="114" y="131" type="line"/>
      <point x="113" y="138" type="line"/>
      <point x="112" y="145" type="line"/>
      <point x="112" y="152" type="line"/>
      <point x="111" y="159" type="line"/>
      <point x="111" y="166" type="line"/>
      <point x="110" y="173" type="line"/>
      <point x="110" y="180" type="line"/>
      <point x="110" y="187" type="line"/>
      <point x="110" y="193" type="line"/>
      <point x="110" y="200" type="line"/>
      <point x="110" y="217" type="line"/>
      <point x="111" y="233" type="line"/>
      <point x="113" y="247" type="line"/>
      <point x="115" y="260" type="line"/>
      <point x="118" y="272" type="line"/>
      <point x="121" y="283" type="line"/>
      <point x="124" y="293" type="line"/>
      <point x="128" y="303" type="line"/>
      <point x="132" y="311" type="line"/>
      <point x="136" y="318" type="line"/>
      <point x="141" y="325" type="line"/>
      <point x="146" y="331" type="line"/>
      <point x="151" y="336" type="line"/>
      <point x="155" y="340" type="line"/>
      <point x="161" y="345" type="line"/>
      <point x="167" y="349" type="line"/>
      <point x="173" y="352" type="line"/>
      <point x="179" y="355" type="line"/>
      <point x="185" y="358" type="line"/>
      <point x="191" y="360" type="line"/>
      <point x="198" y="362" type="line"/>
      <point x="204" y="364" type="line"/>
      <point x="211" y="366" type="line"/>
      <point x="218" y="367" type="line"/>
      <point x="225" y="368" type="line"/>
      <point x="232" y="368" type="line"/>
      <point x="239" y="369" type="line"/>
      <point x="246" y="369" type="line"/>
      <point x="253" y="370" type="line"/>
      <point x="260" y="370" type="line"/>
      <point x="267" y="370" type="line"/>
      <point x="273" y="370" type="line"/>
      <point x="470" y="370" type="line" smooth="yes"/>
      <point x="480" y="370" type="line"/>
      <point x="497" y="370" type="line"/>
      <point x="513" y="369" type="line"/>
      <point x="527" y="367" type="line"/>
      <point x="540" y="365" type="line"/>
      <point x="552" y="362" type="line"/>
      <point x="563" y="359" type="line"/>
      <point x="573" y="356" type="line"/>
      <point x="583" y="352" type="line"/>
      <point x="591" y="348" type="line"/>
      <point x="598" y="344" type="line"/>
      <point x="605" y="339" type="line"/>
      <point x="611" y="334" type="line"/>
      <point x="616" y="329" type="line"/>
      <point x="620" y="325" type="line"/>
      <point x="625" y="319" type="line"/>
      <point x="629" y="313" type="line"/>
      <point x="632" y="307" type="line"/>
      <point x="635" y="301" type="line"/>
      <point x="638" y="295" type="line"/>
      <point x="640" y="289" type="line"/>
      <point x="642" y="282" type="line"/>
      <point x="644" y="276" type="line"/>
      <point x="646" y="269" type="line"/>
      <point x="647" y="262" type="line"/>
      <point x="648" y="255" type="line"/>
      <point x="648" y="248" type="line"/>
      <point x="649" y="241" type="line"/>
      <point x="649" y="234" type="line"/>
      <point x="650" y="227" type="line"/>
      <point x="650" y="220" type="line"/>
      <point x="650" y="213" type="line"/>
      <point x="650" y="207" type="line"/>
      <point x="650" y="200" type="line"/>
      <point x="650" y="183" type="line"/>
      <point x="649" y="167" type="line"/>
      <point x="647" y="153" type="line"/>
      <point x="645" y="140" type="line"/>
      <point x="642" y="128" type="line"/>
      <point x="639" y="117" type="line"/>
      <point x="636" y="107" type="line"/>
      <point x="632" y="97" type="line"/>
      <point x="628" y="89" type="line"/>
      <point x="624" y="82" type="line"/>
      <point x="619" y="75" type="line"/>
      <point x="614" y="69" type="line"/>
      <point x="609" y="64" type="line"/>
      <point x="605" y="60" type="line"/>
      <point x="599" y="55" type="line"/>
      <point x="593" y="51" type="line"/>
      <point x="587" y="48" type="line"/>
      <point x="581" y="45" type="line"/>
      <point x="575" y="42" type="line"/>
      <point x="569" y="40" type="line"/>
      <point x="562" y="38" type="line"/>
      <point x="556" y="36" type="line"/>
      <point x="549" y="34" type="line"/>
      <point x="542" y="33" type="line"/>
      <point x="535" y="32" type="line"/>
      <point x="528" y="32" type="line"/>
      <point x="521" y="31" type="line"/>
      <point x="514" y="31" type="line"/>
      <point x="507" y="30" type="line"/>
      <point x="500" y="30" type="line"/>
      <point x="493" y="30" type="line"/>
    </contour>
  </outline>
</glyph>
<glyph name="nine" format="1">
  <advance width="760"/>
  <unicode hex="0039"/>
  <outline>
    <contour>
      <point x="650" y="380" type="line"/>
      <point x="640" y="387" type="line"/>
      <point x="630" y="394" type="line"/>
      <point x="619" y="401" type="line"/>
      <point x="607" y="407" type="line"/>
      <point x="594" y="412" type="line"/>
      <point x="581" y="417" type="line"/>
      <point x="566" y="421" type="line"/>
      <point x="551" y="424" type="line"/>
      <point x="535" y="427" type="line"/>
      <point x="518" y="428" type="line"/>
      <point x="500" y="430" type="line"/>
      <point x="481" y="430" type="line"/>
      <point x="280" y="430" type="line"/>
      <point x="263" y="430" type="line"/>
      <point x="247" y="431" type="line"/>
      <point x="233" y="433" type="line"/>
      <point x="220" y="435" type="line"/>
      <point x="208" y="438" type="line"/>
      <point x="197" y="441" type="line"/>
      <point x="187" y="444" type="line"/>
      <point x="177" y="448" type="line"/>
      <point x="169" y="452" type="line"/>
      <point x="162" y="456" type="line"/>
      <point x="155" y="461" type="line"/>
      <point x="149" y="466" type="line"/>
      <point x="144" y="471" type="line"/>
      <point x="140" y="475" type="line"/>
      <point x="135" y="481" type="line"/>
      <point x="131" y="487" type="line"/>
      <point x="128" y="493" type="line"/>
      <point x="125" y="499" type="line"/>
      <point x="122" y="505" type="line"/>
      <point x="120" y="511" type="line"/>
      <point x="118" y="518" type="line"/>
      <point x="116" y="524" type="line"/>
      <point x="114" y="531" type="line"/>
      <point x="113" y="538" type="line"/>
      <point x="112" y="545" type="line"/>
      <point x="112" y="552" type="line"/>
      <point x="111" y="559" type="line"/>
      <point x="111" y="566" type="line"/>
      <point x="110" y="573" type="line"/>
      <point x="110" y="580" type="line"/>
      <point x="110" y="587" type="line"/>
      <point x="110" y="593" type="line"/>
      <point x="110" y="600" type="line"/>
      <point x="110" y="617" type="line"/>
      <point x="111" y="633" type="line"/>
      <point x="113" y="647" type="line"/>
      <point x="115" y="660" type="line"/>
      <point x="118" y="672" type="line"/>
      <point x="121" y="683" type="line"/>
      <point x="124" y="693" type="line"/>
      <point x="128" y="703" type="line"/>
      <point x="132" y="711" type="line"/>
      <point x="136" y="718" type="line"/>
      <point x="141" y="725" type="line"/>
      <point x="146" y="731" type="line"/>
      <point x="151" y="736" type="line"/>
      <point x="155" y="740" type="line"/>
      <point x="161" y="745" type="line"/>
      <point x="167" y="749" type="line"/>
      <point x="173" y="752" type="line"/>
      <point x="179" y="755" type="line"/>
      <point x="185" y="758" type="line"/>
      <point x="191" y="760" type="line"/>
      <point x="198" y="762" type="line"/>
      <point x="204" y="764" type="line"/>
      <point x="211" y="766" type="line"/>
      <point x="218" y="767" type="line"/>
      <point x="225" y="768" type="line"/>
      <point x="232" y="768" type="line"/>
      <point x="239" y="769" type="line"/>
      <point x="246" y="769" type="line"/>
      <point x="253" y="770" type="line"/>
      <point x="260" y="770" type="line"/>
      <point x="267" y="770" type="line"/>
      <point x="273" y="770" type="line"/>
      <point x="480" y="770" type="line"/>
      <point x="497" y="770" type="line"/>
      <point x="513" y="769" type="line"/>
      <point x="527" y="767" type="line"/>
      <point x="540" y="765" type="line"/>
      <point x="552" y="762" type="line"/>
      <point x="563" y="759" type="line"/>
      <point x="573" y="756" type="line"/>
      <point x="583" y="752" type="line"/>
      <point x="591" y="748" type="line"/>
      <point x="598" y="744" type="line"/>
      <point x="605" y="739" type="line"/>
      <point x="611" y="734" type="line"/>
      <point x="616" y="729" type="line"/>
      <point x="620" y="725" type="line"/>
      <point x="625" y="719" type="line"/>
      <point x="629" y="713" type="line"/>
      <point x="632" y="707" type="line"/>
      <point x="635" y="701" type="line"/>
      <point x="638" y="695" type="line"/>
      <point x="640" y="689" type="line"/>
      <point x="642" y="682" type="line"/>
      <point x="644" y="676" type="line"/>
      <point x="646" y="669" type="line"/>
      <point x="647" y="662" type="line"/>
      <point x="648" y="655" type="line"/>
      <point x="648" y="648" type="line"/>
      <point x="649" y="641" type="line"/>
      <point x="649" y="634" type="line"/>
      <point x="650" y="627" type="line"/>
      <point x="650" y="620" type="line"/>
      <point x="650" y="613" type="line"/>
      <point x="650" y="607" type="line"/>
      <point x="650" y="600" type="line"/>
      <point x="650" y="380" type="line"/>
    </contour>
    <contour>
      <point x="273" y="-30" type="line"/>
      <point x="481" y="-30" type="line"/>
      <point x="500" y="-30" type="line"/>
      <point x="518" y="-28" type="line"/>
      <point x="535" y="-27" type="line"/>
      <point x="551" y="-24" type="line"/>
      <point x="566" y="-21" type="line"/>
      <point x="581" y="-17" type="line"/>
      <point x="594" y="-12" type="line"/>
      <point x="607" y="-7" type="line"/>
      <point x="619" y="-1" type="line"/>
      <point x="630" y="6" type="line"/>
      <point x="640" y="13" type="line"/>
      <point x="650" y="20" type="line"/>
      <point x="658" y="28" type="line"/>
      <point x="665" y="35" type="line" smooth="yes"/>
      <point x="665" y="35"/>
      <point x="666" y="36"/>
      <point x="666" y="37" type="curve" smooth="yes"/>
      <point x="673" y="45" type="line"/>
      <point x="679" y="54" type="line"/>
      <point x="685" y="63" type="line"/>
      <point x="689" y="73" type="line"/>
      <point x="693" y="82" type="line"/>
      <point x="697" y="91" type="line"/>
      <point x="700" y="101" type="line"/>
      <point x="702" y="110" type="line"/>
      <point x="704" y="119" type="line"/>
      <point x="706" y="129" type="line"/>
      <point x="707" y="137" type="line"/>
      <point x="708" y="146" type="line"/>
      <point x="709" y="155" type="line"/>
      <point x="709" y="163" type="line"/>
      <point x="710" y="171" type="line"/>
      <point x="710" y="179" type="line"/>
      <point x="710" y="186" type="line"/>
      <point x="710" y="193" type="line"/>
      <point x="710" y="200" type="line"/>
      <point x="710" y="600" type="line"/>
      <point x="710" y="607" type="line"/>
      <point x="710" y="614" type="line"/>
      <point x="710" y="621" type="line"/>
      <point x="710" y="629" type="line"/>
      <point x="709" y="637" type="line"/>
      <point x="709" y="646" type="line"/>
      <point x="708" y="655" type="line"/>
      <point x="707" y="663" type="line"/>
      <point x="706" y="673" type="line"/>
      <point x="704" y="682" type="line"/>
      <point x="702" y="691" type="line"/>
      <point x="699" y="701" type="line"/>
      <point x="696" y="710" type="line"/>
      <point x="693" y="720" type="line"/>
      <point x="689" y="729" type="line"/>
      <point x="684" y="738" type="line"/>
      <point x="678" y="748" type="line"/>
      <point x="672" y="756" type="line"/>
      <point x="666" y="763" type="line" smooth="yes"/>
      <point x="666" y="764"/>
      <point x="665" y="765"/>
      <point x="665" y="765" type="curve" smooth="yes"/>
      <point x="657" y="773" type="line"/>
      <point x="648" y="781" type="line"/>
      <point x="638" y="789" type="line"/>
      <point x="628" y="796" type="line"/>
      <point x="617" y="802" type="line"/>
      <point x="605" y="808" type="line"/>
      <point x="593" y="813" type="line"/>
      <point x="579" y="817" type="line"/>
      <point x="565" y="821" type="line"/>
      <point x="549" y="824" type="line"/>
      <point x="533" y="827" type="line"/>
      <point x="516" y="829" type="line"/>
      <point x="498" y="830" type="line"/>
      <point x="481" y="830" type="line" smooth="yes"/>
      <point x="480" y="830"/>
      <point x="480" y="830"/>
      <point x="480" y="830" type="curve" smooth="yes"/>
      <point x="273" y="830" type="line"/>
      <point x="266" y="830" type="line"/>
      <point x="259" y="830" type="line"/>
      <point x="251" y="830" type="line"/>
      <point x="243" y="829" type="line"/>
      <point x="234" y="829" type="line"/>
      <point x="225" y="828" type="line"/>
      <point x="217" y="827" type="line"/>
      <point x="207" y="826" type="line"/>
      <point x="198" y="824" type="line"/>
      <point x="189" y="822" type="line"/>
      <point x="179" y="819" type="line"/>
      <point x="170" y="816" type="line"/>
      <point x="160" y="813" type="line"/>
      <point x="151" y="809" type="line"/>
      <point x="142" y="804" type="line"/>
      <point x="132" y="798" type="line"/>
      <point x="124" y="792" type="line"/>
      <point x="117" y="786" type="line" smooth="yes"/>
      <point x="116" y="786"/>
      <point x="115" y="785"/>
      <point x="115" y="785" type="curve" smooth="yes"/>
      <point x="107" y="777" type="line"/>
      <point x="99" y="768" type="line"/>
      <point x="91" y="758" type="line"/>
      <point x="84" y="748" type="line"/>
      <point x="78" y="737" type="line"/>
      <point x="72" y="725" type="line"/>
      <point x="67" y="713" type="line"/>
      <point x="63" y="699" type="line"/>
      <point x="59" y="685" type="line"/>
      <point x="56" y="669" type="line"/>
      <point x="53" y="653" type="line"/>
      <point x="51" y="636" type="line"/>
      <point x="50" y="618" type="line"/>
      <point x="50" y="600" type="line"/>
      <point x="50" y="593" type="line"/>
      <point x="50" y="586" type="line"/>
      <point x="50" y="579" type="line"/>
      <point x="50" y="571" type="line"/>
      <point x="51" y="563" type="line"/>
      <point x="51" y="554" type="line"/>
      <point x="52" y="545" type="line"/>
      <point x="53" y="537" type="line"/>
      <point x="54" y="527" type="line"/>
      <point x="56" y="518" type="line"/>
      <point x="58" y="509" type="line"/>
      <point x="61" y="499" type="line"/>
      <point x="64" y="490" type="line"/>
      <point x="67" y="480" type="line"/>
      <point x="71" y="471" type="line"/>
      <point x="76" y="462" type="line"/>
      <point x="82" y="452" type="line"/>
      <point x="88" y="444" type="line"/>
      <point x="94" y="437" type="line" smooth="yes"/>
      <point x="94" y="436"/>
      <point x="95" y="435"/>
      <point x="95" y="435" type="curve" smooth="yes"/>
      <point x="103" y="427" type="line"/>
      <point x="112" y="419" type="line"/>
      <point x="122" y="411" type="line"/>
      <point x="132" y="404" type="line"/>
      <point x="143" y="398" type="line"/>
      <point x="155" y="392" type="line"/>
      <point x="167" y="387" type="line"/>
      <point x="181" y="383" type="line"/>
      <point x="195" y="379" type="line"/>
      <point x="211" y="376" type="line"/>
      <point x="227" y="373" type="line"/>
      <point x="244" y="371" type="line"/>
      <point x="262" y="370" type="line"/>
      <point x="280" y="370" type="line"/>
      <point x="479" y="370" type="line"/>
      <point x="496" y="370" type="line"/>
      <point x="511" y="369" type="line"/>
      <point x="526" y="367" type="line"/>
      <point x="539" y="365" type="line"/>
      <point x="551" y="363" type="line"/>
      <point x="562" y="360" type="line"/>
      <point x="572" y="357" type="line"/>
      <point x="581" y="353" type="line"/>
      <point x="589" y="349" type="line"/>
      <point x="596" y="345" type="line"/>
      <point x="603" y="340" type="line"/>
      <point x="609" y="336" type="line"/>
      <point x="614" y="331" type="line"/>
      <point x="620" y="325" type="line"/>
      <point x="624" y="320" type="line"/>
      <point x="628" y="315" type="line"/>
      <point x="631" y="309" type="line"/>
      <point x="634" y="303" type="line"/>
      <point x="637" y="297" type="line"/>
      <point x="640" y="290" type="line"/>
      <point x="642" y="284" type="line"/>
      <point x="644" y="277" type="line"/>
      <point x="645" y="270" type="line"/>
      <point x="647" y="263" type="line"/>
      <point x="648" y="256" type="line"/>
      <point x="648" y="249" type="line"/>
      <point x="649" y="242" type="line"/>
      <point x="649" y="234" type="line"/>
      <point x="650" y="227" type="line"/>
      <point x="650" y="220" type="line"/>
      <point x="650" y="213" type="line"/>
      <point x="650" y="207" type="line"/>
      <point x="650" y="200" type="line" smooth="yes"/>
      <point x="650" y="193" type="line"/>
      <point x="650" y="187" type="line"/>
      <point x="650" y="180" type="line"/>
      <point x="650" y="173" type="line"/>
      <point x="649" y="166" type="line"/>
      <point x="649" y="158" type="line"/>
      <point x="648" y="151" type="line"/>
      <point x="648" y="144" type="line"/>
      <point x="647" y="137" type="line"/>
      <point x="645" y="130" type="line"/>
      <point x="644" y="123" type="line"/>
      <point x="642" y="116" type="line"/>
      <point x="640" y="110" type="line"/>
      <point x="637" y="103" type="line"/>
      <point x="634" y="97" type="line"/>
      <point x="631" y="91" type="line"/>
      <point x="628" y="85" type="line"/>
      <point x="624" y="80" type="line"/>
      <point x="620" y="75" type="line"/>
      <point x="614" y="69" type="line"/>
      <point x="609" y="64" type="line"/>
      <point x="603" y="60" type="line"/>
      <point x="596" y="55" type="line"/>
      <point x="589" y="51" type="line"/>
      <point x="581" y="47" type="line"/>
      <point x="572" y="43" type="line"/>
      <point x="562" y="40" type="line"/>
      <point x="551" y="37" type="line"/>
      <point x="539" y="35" type="line"/>
      <point x="526" y="33" type="line"/>
      <point x="511" y="31" type="line"/>
      <point x="496" y="30" type="line"/>
      <point x="479" y="30" type="line"/>
      <point x="273" y="30" type="line"/>
      <point x="267" y="30" type="line"/>
      <point x="260" y="30" type="line"/>
      <point x="253" y="30" type="line"/>
      <point x="246" y="31" type="line"/>
      <point x="238" y="31" type="line"/>
      <point x="231" y="32" type="line"/>
      <point x="224" y="32" type="line"/>
      <point x="217" y="33" type="line"/>
      <point x="210" y="35" type="line"/>
      <point x="203" y="36" type="line"/>
      <point x="196" y="38" type="line"/>
      <point x="190" y="40" type="line"/>
      <point x="183" y="43" type="line"/>
      <point x="177" y="46" type="line"/>
      <point x="171" y="49" type="line"/>
      <point x="165" y="52" type="line"/>
      <point x="160" y="56" type="line"/>
      <point x="155" y="60" type="line"/>
      <point x="149" y="66" type="line"/>
      <point x="144" y="71" type="line"/>
      <point x="140" y="77" type="line"/>
      <point x="135" y="84" type="line"/>
      <point x="131" y="91" type="line"/>
      <point x="127" y="99" type="line"/>
      <point x="123" y="108" type="line"/>
      <point x="120" y="118" type="line"/>
      <point x="117" y="129" type="line"/>
      <point x="115" y="141" type="line"/>
      <point x="113" y="154" type="line"/>
      <point x="111" y="169" type="line"/>
      <point x="110" y="184" type="line"/>
      <point x="110" y="201" type="line" smooth="yes"/>
      <point x="110" y="217"/>
      <point x="96" y="230"/>
      <point x="79" y="230" type="curve" smooth="yes"/>
      <point x="63" y="230"/>
      <point x="50" y="216"/>
      <point x="50" y="199" type="curve" smooth="yes"/>
      <point x="50" y="180" type="line"/>
      <point x="52" y="162" type="line"/>
      <point x="53" y="145" type="line"/>
      <point x="56" y="129" type="line"/>
      <point x="59" y="114" type="line"/>
      <point x="63" y="99" type="line"/>
      <point x="68" y="86" type="line"/>
      <point x="73" y="73" type="line"/>
      <point x="79" y="61" type="line"/>
      <point x="86" y="50" type="line"/>
      <point x="93" y="40" type="line"/>
      <point x="100" y="30" type="line"/>
      <point x="108" y="22" type="line"/>
      <point x="115" y="15" type="line" smooth="yes"/>
      <point x="115" y="15"/>
      <point x="116" y="14"/>
      <point x="117" y="14" type="curve" smooth="yes"/>
      <point x="125" y="7" type="line"/>
      <point x="134" y="1" type="line"/>
      <point x="143" y="-5" type="line"/>
      <point x="153" y="-9" type="line"/>
      <point x="162" y="-13" type="line"/>
      <point x="171" y="-17" type="line"/>
      <point x="181" y="-20" type="line"/>
      <point x="190" y="-22" type="line"/>
      <point x="199" y="-24" type="line"/>
      <point x="209" y="-26" type="line"/>
      <point x="217" y="-27" type="line"/>
      <point x="226" y="-28" type="line"/>
      <point x="235" y="-29" type="line"/>
      <point x="243" y="-29" type="line"/>
      <point x="251" y="-30" type="line"/>
      <point x="259" y="-30" type="line"/>
      <point x="266" y="-30" type="line"/>
    </contour>
  </outline>
</glyph>
<glyph name="semicolon" format="1">
  <advance width="260"/>
  <unicode hex="003B"/>
  <outline>
    <contour>
      <point x="180" y="553" type="curve" smooth="yes"/>
      <point x="196" y="553"/>
      <point x="210" y="567"/>
      <point x="210" y="583" type="curve" smooth="yes"/>
      <point x="210" y="592" type="line" smooth="yes"/>
      <point x="210" y="608"/>
      <point x="196" y="622"/>
      <point x="180" y="622" type="curve" smooth="yes"/>
      <point x="164" y="622"/>
      <point x="150" y="608"/>
      <point x="150" y="592" type="curve" smooth="yes"/>
      <point x="150" y="583" type="line" smooth="yes"/>
      <point x="150" y="567"/>
      <point x="164" y="553"/>
    </contour>
    <contour>
      <point x="80" y="-38" type="curve" smooth="yes"/>
      <point x="180" y="-38" type="line" smooth="yes"/>
      <point x="197" y="-38"/>
      <point x="210" y="-25"/>
      <point x="210" y="-8" type="curve" smooth="yes"/>
      <point x="210" y="192" type="line" smooth="yes"/>
      <point x="210" y="208"/>
      <point x="196" y="222"/>
      <point x="180" y="222" type="curve" smooth="yes"/>
      <point x="164" y="222"/>
      <point x="150" y="208"/>
      <point x="150" y="192" type="curve" smooth="yes"/>
      <point x="150" y="22" type="line"/>
      <point x="80" y="22" type="line" smooth="yes"/>
      <point x="64" y="22"/>
      <point x="50" y="8"/>
      <point x="50" y="-8" type="curve" smooth="yes"/>
      <point x="50" y="-24"/>
      <point x="64" y="-38"/>
    </contour>
  </outline>
</glyph>
<glyph name="less" format="1">
  <advance width="551"/>
  <unicode hex="003C"/>
  <outline>
    <contour>
      <point x="498" y="90" type="curve" smooth="yes"/>
      <point x="505" y="104"/>
      <point x="499" y="123"/>
      <point x="484" y="130" type="curve" smooth="yes"/>
      <point x="138" y="303" type="line"/>
      <point x="476" y="472" type="line"/>
      <point x="484" y="476" type="line" smooth="yes"/>
      <point x="499" y="483"/>
      <point x="505" y="502"/>
      <point x="498" y="516" type="curve" smooth="yes"/>
      <point x="491" y="531"/>
      <point x="472" y="537"/>
      <point x="458" y="530" type="curve" smooth="yes"/>
      <point x="75" y="339" type="line"/>
      <point x="66" y="334" type="line" smooth="yes"/>
      <point x="57" y="330"/>
      <point x="50" y="318"/>
      <point x="50" y="307" type="curve" smooth="yes"/>
      <point x="50" y="299" type="line" smooth="yes"/>
      <point x="50" y="288"/>
      <point x="57" y="276"/>
      <point x="66" y="272" type="curve" smooth="yes"/>
      <point x="449" y="81" type="line"/>
      <point x="458" y="76" type="line" smooth="yes"/>
      <point x="472" y="69"/>
      <point x="491" y="75"/>
    </contour>
  </outline>
</glyph>
<glyph name="greater" format="1">
  <advance width="551"/>
  <unicode hex="003E"/>
  <outline>
    <contour>
      <point x="93" y="93" type="curve" smooth="yes"/>
      <point x="476" y="284" type="line"/>
      <point x="485" y="289" type="line" smooth="yes"/>
      <point x="494" y="293"/>
      <point x="501" y="305"/>
      <point x="501" y="316" type="curve"/>
      <point x="501" y="324" type="line"/>
      <point x="501" y="335"/>
      <point x="494" y="347"/>
      <point x="485" y="351" type="curve" smooth="yes"/>
      <point x="102" y="542" type="line"/>
      <point x="93" y="547" type="line" smooth="yes"/>
      <point x="79" y="554"/>
      <point x="60" y="548"/>
      <point x="53" y="533" type="curve" smooth="yes"/>
      <point x="46" y="519"/>
      <point x="52" y="500"/>
      <point x="67" y="493" type="curve" smooth="yes"/>
      <point x="413" y="320" type="line"/>
      <point x="75" y="151" type="line"/>
      <point x="67" y="147" type="line" smooth="yes"/>
      <point x="52" y="140"/>
      <point x="46" y="121"/>
      <point x="53" y="107" type="curve" smooth="yes"/>
      <point x="60" y="92"/>
      <point x="79" y="86"/>
    </contour>
  </outline>
</glyph>
<glyph name="question" format="1">
  <advance width="659"/>
  <unicode hex="003F"/>
  <outline>
    <contour>
      <point x="279" y="170" type="curve" smooth="yes"/>
      <point x="295" y="170"/>
      <point x="309" y="184"/>
      <point x="309" y="200" type="curve" smooth="yes"/>
      <point x="309" y="369" type="line"/>
      <point x="386" y="369" type="line"/>
      <point x="393" y="369" type="line"/>
      <point x="400" y="369" type="line"/>
      <point x="408" y="369" type="line"/>
      <point x="416" y="370" type="line"/>
      <point x="424" y="370" type="line"/>
      <point x="433" y="371" type="line"/>
      <point x="442" y="372" type="line"/>
      <point x="451" y="373" type="line"/>
      <point x="460" y="375" type="line"/>
      <point x="469" y="377" type="line"/>
      <point x="478" y="379" type="line"/>
      <point x="488" y="382" type="line"/>
      <point x="497" y="386" type="line"/>
      <point x="506" y="390" type="line"/>
      <point x="516" y="395" type="line"/>
      <point x="525" y="400" type="line"/>
      <point x="534" y="407" type="line"/>
      <point x="543" y="414" type="line"/>
      <point x="551" y="421" type="line"/>
      <point x="559" y="430" type="line"/>
      <point x="566" y="440" type="line"/>
      <point x="574" y="450" type="line" smooth="yes"/>
      <point x="574" y="450"/>
      <point x="574" y="451"/>
      <point x="575" y="452" type="curve" smooth="yes"/>
      <point x="580" y="461" type="line"/>
      <point x="586" y="473" type="line"/>
      <point x="591" y="486" type="line"/>
      <point x="596" y="499" type="line"/>
      <point x="600" y="514" type="line"/>
      <point x="603" y="529" type="line"/>
      <point x="606" y="545" type="line"/>
      <point x="607" y="562" type="line"/>
      <point x="609" y="580" type="line"/>
      <point x="609" y="599" type="line"/>
      <point x="609" y="607" type="line"/>
      <point x="609" y="614" type="line"/>
      <point x="609" y="621" type="line"/>
      <point x="609" y="629" type="line"/>
      <point x="608" y="637" type="line"/>
      <point x="608" y="645" type="line"/>
      <point x="607" y="654" type="line"/>
      <point x="606" y="663" type="line"/>
      <point x="605" y="672" type="line"/>
      <point x="603" y="681" type="line"/>
      <point x="601" y="690" type="line"/>
      <point x="598" y="699" type="line"/>
      <point x="595" y="709" type="line"/>
      <point x="592" y="718" type="line"/>
      <point x="587" y="728" type="line"/>
      <point x="582" y="737" type="line"/>
      <point x="577" y="746" type="line"/>
      <point x="571" y="755" type="line"/>
      <point x="564" y="764" type="line"/>
      <point x="556" y="772" type="line"/>
      <point x="547" y="780" type="line"/>
      <point x="538" y="788" type="line" smooth="yes"/>
      <point x="537" y="788"/>
      <point x="536" y="788"/>
      <point x="536" y="789" type="curve" smooth="yes"/>
      <point x="527" y="795" type="line"/>
      <point x="516" y="801" type="line"/>
      <point x="504" y="807" type="line"/>
      <point x="491" y="812" type="line"/>
      <point x="478" y="817" type="line"/>
      <point x="463" y="821" type="line"/>
      <point x="448" y="824" type="line"/>
      <point x="432" y="827" type="line"/>
      <point x="415" y="828" type="line"/>
      <point x="397" y="830" type="line"/>
      <point x="378" y="830" type="line"/>
      <point x="278" y="830" type="line"/>
      <point x="268" y="830" type="line"/>
      <point x="257" y="829" type="line"/>
      <point x="250" y="828" type="line"/>
      <point x="243" y="827" type="line"/>
      <point x="235" y="825" type="line"/>
      <point x="226" y="824" type="line"/>
      <point x="217" y="821" type="line"/>
      <point x="207" y="819" type="line"/>
      <point x="197" y="816" type="line"/>
      <point x="187" y="812" type="line"/>
      <point x="177" y="808" type="line"/>
      <point x="166" y="803" type="line"/>
      <point x="156" y="797" type="line"/>
      <point x="145" y="791" type="line"/>
      <point x="134" y="783" type="line"/>
      <point x="124" y="775" type="line"/>
      <point x="114" y="766" type="line"/>
      <point x="104" y="756" type="line"/>
      <point x="95" y="745" type="line"/>
      <point x="86" y="733" type="line" smooth="yes"/>
      <point x="86" y="733"/>
      <point x="86" y="732"/>
      <point x="85" y="731" type="curve" smooth="yes"/>
      <point x="79" y="720" type="line"/>
      <point x="71" y="706" type="line"/>
      <point x="65" y="691" type="line" smooth="yes"/>
      <point x="65" y="691"/>
      <point x="65" y="690"/>
      <point x="64" y="689" type="curve" smooth="yes"/>
      <point x="60" y="675" type="line"/>
      <point x="56" y="658" type="line"/>
      <point x="53" y="640" type="line"/>
      <point x="51" y="620" type="line"/>
      <point x="50" y="600" type="line" smooth="yes"/>
      <point x="50" y="584"/>
      <point x="63" y="570"/>
      <point x="79" y="569" type="curve" smooth="yes"/>
      <point x="95" y="569"/>
      <point x="109" y="582"/>
      <point x="110" y="598" type="curve" smooth="yes"/>
      <point x="110" y="615" type="line"/>
      <point x="112" y="630" type="line"/>
      <point x="114" y="644" type="line"/>
      <point x="117" y="657" type="line"/>
      <point x="121" y="670" type="line"/>
      <point x="125" y="680" type="line"/>
      <point x="130" y="690" type="line"/>
      <point x="136" y="700" type="line"/>
      <point x="141" y="707" type="line"/>
      <point x="148" y="715" type="line"/>
      <point x="154" y="722" type="line"/>
      <point x="161" y="728" type="line"/>
      <point x="169" y="734" type="line"/>
      <point x="176" y="739" type="line"/>
      <point x="184" y="744" type="line"/>
      <point x="192" y="748" type="line"/>
      <point x="200" y="752" type="line"/>
      <point x="208" y="756" type="line"/>
      <point x="216" y="759" type="line"/>
      <point x="223" y="761" type="line"/>
      <point x="231" y="763" type="line"/>
      <point x="238" y="765" type="line"/>
      <point x="245" y="766" type="line"/>
      <point x="251" y="767" type="line"/>
      <point x="257" y="768" type="line"/>
      <point x="262" y="769" type="line"/>
      <point x="271" y="770" type="line"/>
      <point x="278" y="770" type="line"/>
      <point x="376" y="770" type="line"/>
      <point x="393" y="770" type="line"/>
      <point x="408" y="769" type="line"/>
      <point x="423" y="767" type="line"/>
      <point x="436" y="765" type="line"/>
      <point x="448" y="763" type="line"/>
      <point x="459" y="760" type="line"/>
      <point x="469" y="757" type="line"/>
      <point x="478" y="753" type="line"/>
      <point x="486" y="749" type="line"/>
      <point x="494" y="745" type="line"/>
      <point x="502" y="740" type="line"/>
      <point x="507" y="736" type="line"/>
      <point x="512" y="731" type="line"/>
      <point x="517" y="726" type="line"/>
      <point x="522" y="720" type="line"/>
      <point x="526" y="715" type="line"/>
      <point x="529" y="709" type="line"/>
      <point x="533" y="703" type="line"/>
      <point x="536" y="697" type="line"/>
      <point x="538" y="690" type="line"/>
      <point x="540" y="683" type="line"/>
      <point x="542" y="677" type="line"/>
      <point x="544" y="670" type="line"/>
      <point x="545" y="663" type="line"/>
      <point x="546" y="656" type="line"/>
      <point x="547" y="649" type="line"/>
      <point x="548" y="641" type="line"/>
      <point x="548" y="634" type="line"/>
      <point x="549" y="627" type="line"/>
      <point x="549" y="620" type="line"/>
      <point x="549" y="613" type="line"/>
      <point x="549" y="607" type="line"/>
      <point x="549" y="601" type="line"/>
      <point x="549" y="584" type="line"/>
      <point x="548" y="569" type="line"/>
      <point x="546" y="554" type="line"/>
      <point x="544" y="541" type="line"/>
      <point x="542" y="529" type="line"/>
      <point x="539" y="518" type="line"/>
      <point x="536" y="508" type="line"/>
      <point x="532" y="499" type="line"/>
      <point x="528" y="491" type="line"/>
      <point x="523" y="482" type="line"/>
      <point x="519" y="477" type="line"/>
      <point x="515" y="471" type="line"/>
      <point x="510" y="465" type="line"/>
      <point x="505" y="460" type="line"/>
      <point x="499" y="456" type="line"/>
      <point x="494" y="452" type="line"/>
      <point x="488" y="448" type="line"/>
      <point x="482" y="445" type="line"/>
      <point x="476" y="442" type="line"/>
      <point x="469" y="440" type="line"/>
      <point x="463" y="437" type="line"/>
      <point x="456" y="435" type="line"/>
      <point x="449" y="434" type="line"/>
      <point x="442" y="433" type="line"/>
      <point x="435" y="432" type="line"/>
      <point x="428" y="431" type="line"/>
      <point x="420" y="430" type="line"/>
      <point x="413" y="430" type="line"/>
      <point x="406" y="429" type="line"/>
      <point x="399" y="429" type="line"/>
      <point x="392" y="429" type="line"/>
      <point x="386" y="429" type="line"/>
      <point x="289" y="429" type="line"/>
      <point x="279" y="429" type="line" smooth="yes"/>
      <point x="262" y="429"/>
      <point x="249" y="416"/>
      <point x="249" y="399" type="curve" smooth="yes"/>
      <point x="249" y="200" type="line" smooth="yes"/>
      <point x="249" y="184"/>
      <point x="263" y="170"/>
    </contour>
    <contour>
      <point x="279" y="-30" type="curve" smooth="yes"/>
      <point x="295" y="-30"/>
      <point x="309" y="-16"/>
      <point x="309" y="0" type="curve" smooth="yes"/>
      <point x="309" y="11" type="line" smooth="yes"/>
      <point x="309" y="27"/>
      <point x="295" y="41"/>
      <point x="279" y="41" type="curve" smooth="yes"/>
      <point x="263" y="41"/>
      <point x="249" y="27"/>
      <point x="249" y="11" type="curve" smooth="yes"/>
      <point x="249" y="0" type="line" smooth="yes"/>
      <point x="249" y="-16"/>
      <point x="263" y="-30"/>
    </contour>
  </outline>
</glyph>
<glyph name="at" format="1">
  <advance width="760"/>
  <unicode hex="0040"/>
  <outline>
    <contour>
      <point x="282" y="-72" type="line"/>
      <point x="480" y="-72" type="line" smooth="yes"/>
      <point x="496" y="-72"/>
      <point x="510" y="-58"/>
      <point x="510" y="-42" type="curve" smooth="yes"/>
      <point x="510" y="-26"/>
      <point x="496" y="-12"/>
      <point x="480" y="-12" type="curve" smooth="yes"/>
      <point x="282" y="-12" type="line"/>
      <point x="265" y="-12" type="line"/>
      <point x="249" y="-11" type="line"/>
      <point x="235" y="-9" type="line"/>
      <point x="222" y="-7" type="line"/>
      <point x="210" y="-4" type="line"/>
      <point x="198" y="-1" type="line"/>
      <point x="188" y="2" type="line"/>
      <point x="179" y="6" type="line"/>
      <point x="171" y="10" type="line"/>
      <point x="163" y="14" type="line"/>
      <point x="158" y="18" type="line"/>
      <point x="151" y="24" type="line"/>
      <point x="145" y="29" type="line"/>
      <point x="140" y="34" type="line"/>
      <point x="136" y="39" type="line"/>
      <point x="132" y="45" type="line"/>
      <point x="129" y="51" type="line"/>
      <point x="125" y="57" type="line"/>
      <point x="123" y="63" type="line"/>
      <point x="120" y="69" type="line"/>
      <point x="118" y="76" type="line"/>
      <point x="116" y="83" type="line"/>
      <point x="115" y="89" type="line"/>
      <point x="114" y="96" type="line"/>
      <point x="113" y="103" type="line"/>
      <point x="112" y="110" type="line"/>
      <point x="111" y="117" type="line"/>
      <point x="111" y="124" type="line"/>
      <point x="110" y="131" type="line"/>
      <point x="110" y="138" type="line"/>
      <point x="110" y="145" type="line"/>
      <point x="110" y="152" type="line"/>
      <point x="110" y="158" type="line"/>
      <point x="110" y="168" type="line"/>
      <point x="110" y="562" type="line"/>
      <point x="110" y="569" type="line"/>
      <point x="110" y="575" type="line"/>
      <point x="110" y="582" type="line"/>
      <point x="110" y="589" type="line"/>
      <point x="110" y="596" type="line"/>
      <point x="110" y="603" type="line"/>
      <point x="111" y="610" type="line"/>
      <point x="112" y="617" type="line"/>
      <point x="113" y="624" type="line"/>
      <point x="114" y="631" type="line"/>
      <point x="115" y="637" type="line"/>
      <point x="117" y="644" type="line"/>
      <point x="119" y="650" type="line"/>
      <point x="121" y="657" type="line"/>
      <point x="124" y="663" type="line"/>
      <point x="127" y="668" type="line"/>
      <point x="130" y="674" type="line"/>
      <point x="134" y="678" type="line"/>
      <point x="139" y="685" type="line"/>
      <point x="143" y="690" type="line"/>
      <point x="149" y="694" type="line"/>
      <point x="154" y="698" type="line"/>
      <point x="161" y="703" type="line"/>
      <point x="169" y="707" type="line"/>
      <point x="177" y="711" type="line"/>
      <point x="186" y="715" type="line"/>
      <point x="196" y="718" type="line"/>
      <point x="207" y="721" type="line"/>
      <point x="219" y="723" type="line"/>
      <point x="232" y="725" type="line"/>
      <point x="246" y="727" type="line"/>
      <point x="262" y="728" type="line"/>
      <point x="279" y="728" type="line"/>
      <point x="478" y="728" type="line"/>
      <point x="495" y="728" type="line"/>
      <point x="511" y="727" type="line"/>
      <point x="525" y="725" type="line"/>
      <point x="538" y="723" type="line"/>
      <point x="550" y="720" type="line"/>
      <point x="562" y="717" type="line"/>
      <point x="572" y="714" type="line"/>
      <point x="581" y="710" type="line"/>
      <point x="589" y="706" type="line"/>
      <point x="597" y="702" type="line"/>
      <point x="602" y="698" type="line"/>
      <point x="609" y="692" type="line"/>
      <point x="615" y="687" type="line"/>
      <point x="620" y="682" type="line"/>
      <point x="624" y="677" type="line"/>
      <point x="628" y="671" type="line"/>
      <point x="631" y="665" type="line"/>
      <point x="635" y="659" type="line"/>
      <point x="637" y="653" type="line"/>
      <point x="640" y="647" type="line"/>
      <point x="642" y="640" type="line"/>
      <point x="644" y="633" type="line"/>
      <point x="645" y="627" type="line"/>
      <point x="646" y="620" type="line"/>
      <point x="647" y="613" type="line"/>
      <point x="648" y="606" type="line"/>
      <point x="649" y="599" type="line"/>
      <point x="649" y="592" type="line"/>
      <point x="650" y="585" type="line"/>
      <point x="650" y="578" type="line"/>
      <point x="650" y="571" type="line"/>
      <point x="650" y="564" type="line"/>
      <point x="650" y="558" type="line"/>
      <point x="650" y="548" type="line"/>
      <point x="650" y="359" type="line"/>
      <point x="650" y="342" type="line"/>
      <point x="649" y="326" type="line"/>
      <point x="647" y="312" type="line"/>
      <point x="645" y="299" type="line"/>
      <point x="642" y="287" type="line"/>
      <point x="639" y="276" type="line"/>
      <point x="636" y="265" type="line"/>
      <point x="632" y="256" type="line"/>
      <point x="628" y="248" type="line"/>
      <point x="624" y="242" type="line"/>
      <point x="619" y="234" type="line"/>
      <point x="614" y="228" type="line"/>
      <point x="609" y="223" type="line"/>
      <point x="604" y="218" type="line"/>
      <point x="599" y="213" type="line"/>
      <point x="593" y="210" type="line"/>
      <point x="587" y="206" type="line"/>
      <point x="581" y="203" type="line"/>
      <point x="575" y="200" type="line"/>
      <point x="569" y="198" type="line"/>
      <point x="562" y="196" type="line"/>
      <point x="556" y="194" type="line"/>
      <point x="549" y="193" type="line"/>
      <point x="542" y="191" type="line"/>
      <point x="535" y="190" type="line"/>
      <point x="528" y="190" type="line"/>
      <point x="521" y="189" type="line"/>
      <point x="514" y="189" type="line"/>
      <point x="510" y="188" type="line"/>
      <point x="510" y="558" type="line" smooth="yes"/>
      <point x="510" y="558" type="line"/>
      <point x="510" y="558" type="line" smooth="yes"/>
      <point x="510" y="561" type="line"/>
      <point x="510" y="560"/>
      <point x="510" y="561"/>
      <point x="510" y="563" type="curve"/>
      <point x="510" y="561"/>
      <point x="510" y="563"/>
      <point x="509" y="566" type="curve"/>
      <point x="509" y="567"/>
      <point x="508" y="567"/>
      <point x="508" y="568" type="curve"/>
      <point x="508" y="569"/>
      <point x="507" y="570"/>
      <point x="507" y="571" type="curve"/>
      <point x="507" y="571"/>
      <point x="506" y="572"/>
      <point x="506" y="573" type="curve"/>
      <point x="506" y="573"/>
      <point x="505" y="574"/>
      <point x="504" y="575" type="curve"/>
      <point x="504" y="576"/>
      <point x="504" y="576"/>
      <point x="503" y="577" type="curve"/>
      <point x="502" y="578"/>
      <point x="502" y="578"/>
      <point x="501" y="579" type="curve"/>
      <point x="501" y="580"/>
      <point x="500" y="580"/>
      <point x="499" y="581" type="curve"/>
      <point x="499" y="581"/>
      <point x="498" y="582"/>
      <point x="497" y="582" type="curve"/>
      <point x="497" y="583"/>
      <point x="496" y="583"/>
      <point x="495" y="584" type="curve"/>
      <point x="495" y="584"/>
      <point x="494" y="585"/>
      <point x="493" y="585" type="curve"/>
      <point x="492" y="585"/>
      <point x="491" y="586"/>
      <point x="490" y="586" type="curve"/>
      <point x="490" y="586"/>
      <point x="489" y="587"/>
      <point x="488" y="587" type="curve"/>
      <point x="482" y="588"/>
      <point x="484" y="588"/>
      <point x="485" y="587" type="curve"/>
      <point x="481" y="588"/>
      <point x="482" y="588"/>
      <point x="483" y="588" type="curve"/>
      <point x="480" y="588" type="line" smooth="yes"/>
      <point x="480" y="588" type="line"/>
      <point x="480" y="588" type="line" smooth="yes"/>
      <point x="473" y="588" type="line"/>
      <point x="466" y="588" type="line"/>
      <point x="459" y="588" type="line"/>
      <point x="451" y="588" type="line"/>
      <point x="443" y="587" type="line"/>
      <point x="434" y="587" type="line"/>
      <point x="425" y="586" type="line"/>
      <point x="417" y="585" type="line"/>
      <point x="407" y="584" type="line"/>
      <point x="398" y="582" type="line"/>
      <point x="389" y="580" type="line"/>
      <point x="379" y="577" type="line"/>
      <point x="370" y="574" type="line"/>
      <point x="360" y="571" type="line"/>
      <point x="351" y="567" type="line"/>
      <point x="342" y="562" type="line"/>
      <point x="332" y="556" type="line"/>
      <point x="324" y="550" type="line"/>
      <point x="317" y="544" type="line" smooth="yes"/>
      <point x="316" y="544"/>
      <point x="315" y="543"/>
      <point x="315" y="543" type="curve" smooth="yes"/>
      <point x="307" y="535" type="line"/>
      <point x="299" y="526" type="line"/>
      <point x="291" y="516" type="line"/>
      <point x="284" y="506" type="line"/>
      <point x="278" y="495" type="line"/>
      <point x="272" y="483" type="line"/>
      <point x="267" y="471" type="line"/>
      <point x="263" y="457" type="line"/>
      <point x="259" y="443" type="line"/>
      <point x="256" y="427" type="line"/>
      <point x="253" y="411" type="line"/>
      <point x="251" y="394" type="line"/>
      <point x="250" y="376" type="line"/>
      <point x="250" y="357" type="line"/>
      <point x="250" y="347" type="line"/>
      <point x="251" y="336" type="line"/>
      <point x="252" y="329" type="line"/>
      <point x="253" y="322" type="line"/>
      <point x="255" y="313" type="line"/>
      <point x="257" y="305" type="line"/>
      <point x="259" y="295" type="line"/>
      <point x="261" y="286" type="line"/>
      <point x="265" y="276" type="line"/>
      <point x="268" y="265" type="line"/>
      <point x="273" y="255" type="line"/>
      <point x="278" y="244" type="line"/>
      <point x="283" y="233" type="line"/>
      <point x="290" y="222" type="line"/>
      <point x="297" y="212" type="line"/>
      <point x="306" y="201" type="line"/>
      <point x="315" y="191" type="line"/>
      <point x="325" y="181" type="line"/>
      <point x="334" y="174" type="line" smooth="yes"/>
      <point x="335" y="173"/>
      <point x="335" y="173"/>
      <point x="336" y="172" type="curve" smooth="yes"/>
      <point x="348" y="164" type="line"/>
      <point x="359" y="157" type="line" smooth="yes"/>
      <point x="360" y="157"/>
      <point x="360" y="156"/>
      <point x="361" y="156" type="curve" smooth="yes"/>
      <point x="375" y="149" type="line"/>
      <point x="388" y="143" type="line" smooth="yes"/>
      <point x="389" y="143"/>
      <point x="390" y="143"/>
      <point x="390" y="143" type="curve" smooth="yes"/>
      <point x="406" y="137" type="line"/>
      <point x="423" y="133" type="line"/>
      <point x="442" y="130" type="line"/>
      <point x="461" y="129" type="line"/>
      <point x="480" y="128" type="line"/>
      <point x="480" y="128" type="line" smooth="yes"/>
      <point x="480" y="128" type="line"/>
      <point x="480" y="128" type="line"/>
      <point x="487" y="128" type="line"/>
      <point x="494" y="128" type="line"/>
      <point x="501" y="128" type="line"/>
      <point x="509" y="128" type="line"/>
      <point x="517" y="129" type="line"/>
      <point x="526" y="129" type="line"/>
      <point x="535" y="130" type="line"/>
      <point x="544" y="131" type="line"/>
      <point x="553" y="132" type="line"/>
      <point x="562" y="134" type="line"/>
      <point x="571" y="136" type="line"/>
      <point x="581" y="139" type="line"/>
      <point x="590" y="142" type="line"/>
      <point x="600" y="146" type="line"/>
      <point x="609" y="150" type="line"/>
      <point x="618" y="155" type="line"/>
      <point x="628" y="161" type="line"/>
      <point x="637" y="167" type="line"/>
      <point x="645" y="174" type="line"/>
      <point x="654" y="182" type="line"/>
      <point x="661" y="191" type="line"/>
      <point x="669" y="200" type="line"/>
      <point x="675" y="209" type="line" smooth="yes"/>
      <point x="675" y="209"/>
      <point x="675" y="210"/>
      <point x="676" y="211" type="curve" smooth="yes"/>
      <point x="682" y="222" type="line"/>
      <point x="688" y="234" type="line"/>
      <point x="693" y="246" type="line"/>
      <point x="697" y="260" type="line"/>
      <point x="701" y="274" type="line"/>
      <point x="704" y="289" type="line"/>
      <point x="707" y="306" type="line"/>
      <point x="709" y="323" type="line"/>
      <point x="710" y="341" type="line"/>
      <point x="710" y="359" type="line"/>
      <point x="710" y="548" type="line"/>
      <point x="710" y="558" type="line"/>
      <point x="710" y="565" type="line"/>
      <point x="710" y="572" type="line"/>
      <point x="710" y="580" type="line"/>
      <point x="710" y="587" type="line"/>
      <point x="709" y="596" type="line"/>
      <point x="709" y="604" type="line"/>
      <point x="708" y="613" type="line"/>
      <point x="707" y="622" type="line"/>
      <point x="705" y="631" type="line"/>
      <point x="704" y="640" type="line"/>
      <point x="701" y="649" type="line"/>
      <point x="699" y="659" type="line"/>
      <point x="696" y="668" type="line"/>
      <point x="692" y="678" type="line"/>
      <point x="688" y="687" type="line"/>
      <point x="683" y="697" type="line"/>
      <point x="677" y="706" type="line"/>
      <point x="670" y="715" type="line"/>
      <point x="663" y="723" type="line"/>
      <point x="655" y="732" type="line"/>
      <point x="646" y="739" type="line"/>
      <point x="639" y="746" type="line" smooth="yes"/>
      <point x="638" y="746"/>
      <point x="637" y="746"/>
      <point x="637" y="747" type="curve" smooth="yes"/>
      <point x="627" y="754" type="line"/>
      <point x="615" y="760" type="line"/>
      <point x="603" y="766" type="line"/>
      <point x="591" y="771" type="line"/>
      <point x="577" y="775" type="line"/>
      <point x="563" y="779" type="line"/>
      <point x="548" y="782" type="line"/>
      <point x="531" y="785" type="line"/>
      <point x="514" y="787" type="line"/>
      <point x="496" y="788" type="line"/>
      <point x="479" y="788" type="line" smooth="yes"/>
      <point x="478" y="788"/>
      <point x="478" y="788"/>
      <point x="478" y="788" type="curve" smooth="yes"/>
      <point x="277" y="788" type="line"/>
      <point x="258" y="788" type="line"/>
      <point x="240" y="786" type="line"/>
      <point x="223" y="785" type="line"/>
      <point x="207" y="782" type="line"/>
      <point x="192" y="779" type="line"/>
      <point x="177" y="775" type="line"/>
      <point x="164" y="770" type="line"/>
      <point x="151" y="765" type="line"/>
      <point x="139" y="759" type="line"/>
      <point x="128" y="753" type="line"/>
      <point x="120" y="747" type="line" smooth="yes"/>
      <point x="119" y="747"/>
      <point x="118" y="747"/>
      <point x="118" y="746" type="curve" smooth="yes"/>
      <point x="108" y="739" type="line"/>
      <point x="100" y="731" type="line"/>
      <point x="92" y="722" type="line"/>
      <point x="86" y="716" type="line" smooth="yes"/>
      <point x="86" y="715"/>
      <point x="86" y="714"/>
      <point x="85" y="714" type="curve" smooth="yes"/>
      <point x="79" y="705" type="line"/>
      <point x="74" y="696" type="line"/>
      <point x="69" y="687" type="line"/>
      <point x="65" y="677" type="line"/>
      <point x="62" y="668" type="line"/>
      <point x="59" y="659" type="line"/>
      <point x="56" y="650" type="line"/>
      <point x="55" y="641" type="line"/>
      <point x="53" y="632" type="line"/>
      <point x="52" y="623" type="line"/>
      <point x="51" y="614" type="line"/>
      <point x="50" y="606" type="line"/>
      <point x="50" y="597" type="line"/>
      <point x="50" y="590" type="line"/>
      <point x="50" y="582" type="line"/>
      <point x="50" y="575" type="line"/>
      <point x="50" y="568" type="line"/>
      <point x="50" y="562" type="line"/>
      <point x="50" y="168" type="line"/>
      <point x="50" y="158" type="line"/>
      <point x="50" y="151" type="line"/>
      <point x="50" y="144" type="line"/>
      <point x="50" y="136" type="line"/>
      <point x="50" y="129" type="line"/>
      <point x="51" y="120" type="line"/>
      <point x="51" y="112" type="line"/>
      <point x="52" y="103" type="line"/>
      <point x="53" y="94" type="line"/>
      <point x="55" y="85" type="line"/>
      <point x="56" y="76" type="line"/>
      <point x="59" y="67" type="line"/>
      <point x="61" y="57" type="line"/>
      <point x="64" y="48" type="line"/>
      <point x="68" y="38" type="line"/>
      <point x="72" y="29" type="line"/>
      <point x="77" y="19" type="line"/>
      <point x="83" y="10" type="line"/>
      <point x="90" y="1" type="line"/>
      <point x="97" y="-7" type="line"/>
      <point x="105" y="-16" type="line"/>
      <point x="114" y="-23" type="line"/>
      <point x="121" y="-30" type="line" smooth="yes"/>
      <point x="122" y="-30"/>
      <point x="123" y="-30"/>
      <point x="123" y="-31" type="curve" smooth="yes"/>
      <point x="133" y="-38" type="line"/>
      <point x="145" y="-44" type="line"/>
      <point x="157" y="-50" type="line"/>
      <point x="169" y="-55" type="line"/>
      <point x="183" y="-59" type="line"/>
      <point x="197" y="-63" type="line"/>
      <point x="212" y="-66" type="line"/>
      <point x="229" y="-69" type="line"/>
      <point x="246" y="-71" type="line"/>
      <point x="264" y="-72" type="line"/>
    </contour>
    <contour>
      <point x="447" y="190" type="line"/>
      <point x="433" y="193" type="line"/>
      <point x="421" y="196" type="line"/>
      <point x="410" y="199" type="line"/>
      <point x="398" y="204" type="line"/>
      <point x="389" y="209" type="line"/>
      <point x="379" y="215" type="line"/>
      <point x="372" y="220" type="line"/>
      <point x="363" y="227" type="line"/>
      <point x="357" y="234" type="line"/>
      <point x="350" y="241" type="line"/>
      <point x="345" y="249" type="line"/>
      <point x="340" y="256" type="line"/>
      <point x="335" y="264" type="line"/>
      <point x="331" y="272" type="line"/>
      <point x="327" y="280" type="line"/>
      <point x="324" y="288" type="line"/>
      <point x="321" y="296" type="line"/>
      <point x="319" y="304" type="line"/>
      <point x="317" y="311" type="line"/>
      <point x="315" y="319" type="line"/>
      <point x="314" y="325" type="line"/>
      <point x="312" y="332" type="line"/>
      <point x="312" y="338" type="line"/>
      <point x="311" y="343" type="line"/>
      <point x="310" y="352" type="line"/>
      <point x="310" y="359" type="line"/>
      <point x="310" y="375" type="line"/>
      <point x="311" y="391" type="line"/>
      <point x="313" y="405" type="line"/>
      <point x="315" y="418" type="line"/>
      <point x="318" y="430" type="line"/>
      <point x="321" y="441" type="line"/>
      <point x="324" y="451" type="line"/>
      <point x="328" y="461" type="line"/>
      <point x="332" y="469" type="line"/>
      <point x="336" y="476" type="line"/>
      <point x="341" y="483" type="line"/>
      <point x="346" y="489" type="line"/>
      <point x="351" y="494" type="line"/>
      <point x="355" y="498" type="line"/>
      <point x="361" y="503" type="line"/>
      <point x="367" y="507" type="line"/>
      <point x="373" y="510" type="line"/>
      <point x="379" y="513" type="line"/>
      <point x="385" y="516" type="line"/>
      <point x="391" y="518" type="line"/>
      <point x="398" y="520" type="line"/>
      <point x="404" y="522" type="line"/>
      <point x="411" y="524" type="line"/>
      <point x="418" y="525" type="line"/>
      <point x="425" y="526" type="line"/>
      <point x="432" y="526" type="line"/>
      <point x="439" y="527" type="line"/>
      <point x="446" y="527" type="line"/>
      <point x="450" y="528" type="line"/>
      <point x="450" y="190" type="line"/>
    </contour>
  </outline>
</glyph>
